SplineFontDB: 3.0
FontName: Neuton-Bold
FullName: Neuton Bold
FamilyName: Neuton
Weight: Bold
Copyright: Created by Brian with FontForge 2.0 (http://fontforge.sf.net)
UComments: "2011-6-14: Created." 
Version: 1.5
ItalicAngle: 0
UnderlinePosition: -205
UnderlineWidth: 102
Ascent: 1638
Descent: 410
LayerCount: 2
Layer: 0 0 "Back"  1
Layer: 1 0 "Fore"  0
NeedsXUIDChange: 1
XUID: [1021 467 2011608612 10656044]
OS2Version: 0
OS2_WeightWidthSlopeOnly: 0
OS2_UseTypoMetrics: 1
CreationTime: 1308101163
ModificationTime: 1308102258
OS2TypoAscent: 0
OS2TypoAOffset: 1
OS2TypoDescent: 0
OS2TypoDOffset: 1
OS2TypoLinegap: 0
OS2WinAscent: 0
OS2WinAOffset: 1
OS2WinDescent: 0
OS2WinDOffset: 1
HheadAscent: 0
HheadAOffset: 1
HheadDescent: 0
HheadDOffset: 1
OS2Vendor: 'PfEd'
MarkAttachClasses: 1
DEI: 91125
Encoding: Custom
UnicodeInterp: none
NameList: Adobe Glyph List
DisplaySize: -96
AntiAlias: 1
FitToEm: 1
WinInfo: 110 10 5
BeginChars: 167 383

StartChar: A
Encoding: -1 65 0
Width: 1343
VWidth: 0
Flags: W
HStem: -1 22G<-18.5 520.281 714.5 1336.35> 392 155.5<472 773.342> 1249 20G<708.75 819.669>
DStem2: 150.5 185 343.5 182 0.370308 0.928909<68.6828 291.403 455.784 707.57> 563.5 1221 627 983.5 0.370308 0.928909<-1001.12 -823.884 -659.503 -197.101> 812.5 1269 627 983.5 0.337432 -0.94135<206.162 665.971>
LayerCount: 2
Fore
SplineSet
-18.5 0 m 1
 -4.5 106 l 1
 150.5 185 l 1
 563.5 1221 l 1
 812.5 1269 l 1
 1202.5 181 l 1
 1345 112.5 l 1
 1334.5 -1 l 1
 714.5 -1 l 1
 728.5 105 l 1
 897 184.5 l 1
 823.43 392 l 1
 418.167 392 l 1
 343.5 182 l 1
 531 114 l 1
 518 0 l 1
 -18.5 0 l 1
472 547.5 m 1
 773.342 547.5 l 1
 627 983.5 l 1
 472 547.5 l 1
EndSplineSet
EndChar

StartChar: AE
Encoding: -1 198 1
Width: 1758
VWidth: 0
Flags: HW
LayerCount: 2
Fore
SplineSet
-20 -0.5 m 1
 -5.5 119 l 1
 129.5 184 l 1
 726.5 1073 l 1
 529.5 1131 l 1
 545 1244 l 1
 1701.5 1244 l 1
 1670.5 876.5 l 1
 1542 896 l 1
 1479.5 1112 l 1
 1136.5 1112 l 1
 1145 693.5 l 1
 1340.5 701.506 l 1
 1375.5 764.704 l 1
 1512 779.5 l 1
 1479 465.5 l 1
 1353.5 466.05 l 1
 1324.5 556.214 l 1
 1148.5 561 l 1
 1156.5 147 l 1
 1521.5 138 l 1
 1645 378.5 l 1
 1767.5 362 l 1
 1737.5 0 l 1
 716.5 0 l 1
 727 106 l 1
 892 169 l 1
 885.5 457.5 l 1
 505 457.5 l 1
 330 184.5 l 1
 514.5 116.5 l 1
 499.5 -0.5 l 1
 -20 -0.5 l 1
583 591.5 m 1
 879.5 591.5 l 1
 873.5 1033 l 1
 583 591.5 l 1
EndSplineSet
EndChar

StartChar: B
Encoding: -1 66 12
Width: 1187
VWidth: 0
Flags: HW
LayerCount: 2
Fore
SplineSet
25 0 m 1
 37.5 106 l 1
 204 169 l 1
 204 1056 l 1
 34 1093 l 1
 44 1211 l 1
 188 1231 406.5 1257 583.5 1257 c 0
 941 1257 1071 1109.5 1071 959 c 0
 1071 851.5 999 728 866.5 681.5 c 1
 866.5 673 l 1
 1070.5 662 1164 510.5 1164 379.5 c 0
 1164 165.5 994 0 606 0 c 2
 25 0 l 1
486 141 m 1
 652 141 l 2
 790 141 878.5 229.5 878.5 347.5 c 0
 878.5 471.5 791.5 583 637 583 c 2
 486 583 l 1
 486 141 l 1
486 708 m 1
 702 708 l 1
 765.5 750.5 798 811.5 798 903 c 0
 798 1020.5 736.5 1125.5 552 1125.5 c 0
 532 1125.5 509 1123 486 1119.5 c 1
 486 708 l 1
EndSplineSet
EndChar

StartChar: C
Encoding: -1 67 13
Width: 1197
VWidth: 0
Flags: HW
LayerCount: 2
Fore
SplineSet
30.5 586 m 0
 30.5 880.5 216 1270.5 748.5 1270.5 c 0
 879.5 1270.5 1052 1237.5 1138.5 1170.5 c 1
 1107.5 792.5 l 1
 978.5 810.5 l 1
 925.5 1036.5 l 1
 879.5 1094.5 787 1132 688 1132 c 0
 474.5 1132 333.5 973 333.5 682 c 0
 333.5 344.5 517.5 158 781.5 158 c 0
 921 158 1043.5 217 1130.5 281 c 1
 1177.5 175.5 l 1
 1099 83.5 909.5 -26.5 678.5 -26.5 c 0
 292 -26.5 30.5 196.5 30.5 586 c 0
EndSplineSet
EndChar

StartChar: D
Encoding: -1 68 18
Width: 1407
VWidth: 0
Flags: HW
LayerCount: 2
Fore
SplineSet
23.5 0 m 1
 42 106 l 1
 218 185 l 1
 218 1053 l 1
 45.5 1091 l 1
 53.5 1207.5 l 1
 250 1238.5 462.5 1258 606.5 1258 c 0
 1222.5 1258 1377.5 960 1377.5 652.5 c 0
 1377.5 311 1090.5 0 579.5 0 c 2
 23.5 0 l 1
498.5 153 m 1
 608.5 153 l 2
 965 153 1069.5 395 1069.5 598 c 0
 1069.5 849 917 1106 568.5 1106 c 0
 529 1106 538 1103.5 498.5 1101 c 1
 498.5 153 l 1
EndSplineSet
EndChar

StartChar: Dcroat
Encoding: -1 272 20
Width: 1417
VWidth: 0
Flags: HW
LayerCount: 2
Fore
SplineSet
42.5 519 m 1
 56 656.5 l 1
 222.5 670 l 1
 222.5 1053.5 l 1
 50 1091.5 l 1
 57.5 1208.5 l 1
 254 1239.5 467 1259 611 1259 c 0
 1227 1259 1388.5 962.5 1388.5 655 c 0
 1388.5 321.5 1095 0 593 0 c 2
 28.5 0 l 1
 46.5 106 l 1
 222.5 185 l 1
 222.5 534 l 1
 42.5 519 l 1
503 153 m 1
 646.5 153 l 2
 990 153 1079 400.5 1079 598 c 0
 1079 849 923.5 1107 573 1107 c 0
 533.5 1107 542.5 1103.5 503 1101 c 1
 503 692 l 1
 731 715 l 1
 715.5 575 l 1
 503 558.5 l 1
 503 153 l 1
EndSplineSet
EndChar

StartChar: E
Encoding: -1 69 21
Width: 1189
VWidth: 0
Flags: W
HStem: 0 153<494.5 802.007> 0 133<615.993 923.5> 561.5 132.5<494.5 688> 1112 132<494.5 902.5> 1134 110<40 72.616>
VStem: 211 283.5<169 561.5 694 1078> 964.5 129<894.5 944.792>
LayerCount: 2
Fore
SplineSet
25 1134 m 1x6e
 40 1244 l 1
 1124 1244 l 1x6e
 1093.5 875 l 1
 964.5 894.5 l 1
 902.5 1112 l 1
 494.5 1112 l 1
 494.5 694 l 1
 706 699.396 l 1
 743 760.694 l 1
 917.5 778 l 1
 884 445.5 l 1
 721 460.853 l 1
 688 551.254 l 1
 494.5 561.5 l 1
 494.5 153 l 1xb6
 923.5 133 l 1
 1045.5 377 l 1
 1169.5 362 l 1
 1139.5 0 l 1
 36.5 0 l 1
 45.5 106 l 1
 211 169 l 1
 211 1078 l 1
 25 1134 l 1x6e
EndSplineSet
EndChar

StartChar: Eng
Encoding: -1 330 29
Width: 1396
VWidth: 0
Flags: HW
LayerCount: 2
Fore
SplineSet
27 1127.5 m 1
 39.5 1244 l 1
 435 1244 l 1
 1022 401.5 l 1
 1022 1073 l 1
 835.5 1131 l 1
 853.5 1244 l 1
 1379.5 1244 l 1
 1360.5 1131 l 1
 1193 1078.5 l 1
 1193 292.5 l 2
 1193 -41.4583 1077.5 -184.688 845.5 -325.36 c 2
 796 -354.5 l 1
 712.5 -223 l 1
 799.5 -156.5 871 -66.5 903.5 63.5 c 1
 387 790 l 1
 387 162.5 l 1
 568.5 114 l 1
 556.5 0 l 1
 28.5 0 l 1
 37.5 106 l 1
 206.5 169 l 1
 206.5 1060 l 1
 27 1127.5 l 1
EndSplineSet
EndChar

StartChar: Eth
Encoding: -1 208 31
Width: 1412
VWidth: 0
Flags: HW
LayerCount: 2
Fore
SplineSet
38 519 m 1
 51 656.5 l 1
 218 670 l 1
 218 1053.5 l 1
 45.5 1091.5 l 1
 53.5 1208.5 l 1
 250 1239.5 462.5 1259 606.5 1259 c 0
 1222.5 1259 1384 962.5 1384 655 c 0
 1384 321.5 1091 0 589 0 c 2
 23.5 0 l 1
 42 106 l 1
 218 185 l 1
 218 534 l 1
 38 519 l 1
498.5 153 m 1
 642 153 l 2
 985.5 153 1074.5 400.5 1074.5 598 c 0
 1074.5 849 919 1107 568.5 1107 c 0
 529 1107 538 1103.5 498.5 1101 c 1
 498.5 692 l 1
 726.5 715 l 1
 711 575 l 1
 498.5 558.5 l 1
 498.5 153 l 1
EndSplineSet
EndChar

StartChar: Euro
Encoding: -1 8364 32
Width: 1201
VWidth: 0
Flags: HW
LayerCount: 2
Fore
SplineSet
-7 462 m 1
 6 578 l 1
 873 578 l 1
 849 462 l 1
 -7 462 l 1
6 653 m 1
 19 769.5 l 1
 920.5 769.5 l 1
 896.5 653 l 1
 6 653 l 1
133.5 603 m 0
 133.5 913 366 1267.5 793.5 1267.5 c 0
 924.5 1267.5 1050.5 1240.5 1145.5 1167.5 c 1
 1116.5 826 l 1
 985 843.5 l 1
 931 1048.5 l 1
 870 1106 803.5 1135 702 1135 c 0
 528.5 1135 424 985 424 717 c 1
 424 455 546.5 123.5 799.5 123.5 c 0
 861 123.5 915.5 141 943 181 c 1
 1001.5 404.5 l 1
 1133.5 425 l 1
 1163.5 119 l 1
 1030 5 915 -23.5 751.5 -23.5 c 0
 348 -23.5 133.5 250 133.5 603 c 0
EndSplineSet
EndChar

StartChar: Euro.osf
Encoding: -1 -1 33
Width: 1091
VWidth: 0
Flags: HW
LayerCount: 2
Fore
SplineSet
5.5 437 m 1
 21.5 554.5 l 1
 687 554.5 l 1
 663 437 l 1
 5.5 437 l 1
8 429.5 m 1
 20.5 545.5 l 1
 685.5 545.5 l 1
 661.5 429.5 l 1
 8 429.5 l 1
125 494.5 m 0
 125 781.5 327.5 1018 630 1018 c 0
 785 1018 904 970 956.5 907 c 1
 930 616.5 l 1
 814.5 635 l 1
 764.5 834 l 1
 720.825 876.786 684 909.036 597.147 909.036 c 0
 453.5 909.036 391.5 792.208 391.5 524 c 1
 391.5 214.083 501.5 97.452 642.598 97.452 c 0
 695 97.452 747 125.5 770.5 152.5 c 1
 823.5 389.5 l 1
 939 380 l 1
 964 97.5 l 1
 856 12 732.543 -32.5317 570.464 -32.5317 c 0
 299 -32.5317 125 148.5 125 494.5 c 0
EndSplineSet
EndChar

StartChar: F
Encoding: -1 70 34
Width: 1125
VWidth: 0
Flags: HW
LayerCount: 2
Fore
SplineSet
25 1134 m 1
 40 1244 l 1
 1120.5 1244 l 1
 1070.5 878 l 1
 943 898.5 l 1
 896 1112 l 1
 495.5 1112 l 1
 495.5 678 l 1
 752.5 689.5 l 1
 790 751 l 1
 914.5 766 l 1
 884.5 432 l 1
 764 437.5 l 1
 728 530.5 l 1
 495.5 546 l 1
 494 174.5 l 1
 725.5 113 l 1
 711 0 l 1
 36 0 l 1
 48 106 l 1
 212.5 169 l 1
 212.5 1078 l 1
 25 1134 l 1
EndSplineSet
EndChar

StartChar: G
Encoding: -1 71 35
Width: 1345
VWidth: 0
Flags: HW
LayerCount: 2
Fore
SplineSet
30.5 579 m 0
 30.5 1017.5 386 1265.5 739 1265.5 c 0
 960.5 1265.5 1089.5 1219 1190.5 1174 c 1
 1158 793.5 l 1
 1020.5 808.5 l 1
 982 1013 l 1
 930 1065.5 833.5 1124 690.5 1124 c 0
 496 1124 342 995.5 342 671.5 c 0
 342 370 492.5 128 747.5 128 c 0
 823.5 128 885.5 149.5 926 177 c 1
 926 394.5 l 1
 697.5 445.5 l 1
 715 573 l 1
 1323 573 l 1
 1306.5 457.5 l 1
 1192 401 l 1
 1192 86 l 1
 1083 19 877.5 -27.5 699 -27.5 c 0
 251.5 -27.5 30.5 211.5 30.5 579 c 0
EndSplineSet
EndChar

StartChar: H
Encoding: -1 72 39
Width: 1524
VWidth: 0
Flags: HW
LayerCount: 2
Fore
SplineSet
25 1131 m 1
 43 1244 l 1
 675 1244 l 1
 660.5 1131 l 1
 493 1078.5 l 1
 493 718 l 1
 1030 718 l 1
 1030 1073 l 1
 848 1131 l 1
 862 1244 l 1
 1499 1244 l 1
 1483.5 1131 l 1
 1316 1078.5 l 1
 1316 162.5 l 1
 1496.5 114 l 1
 1484.5 0 l 1
 851.5 0 l 1
 863.5 106 l 1
 1030 169 l 1
 1030 541 l 1
 493 541 l 1
 493 162.5 l 1
 675.5 114 l 1
 660 0 l 1
 31 0 l 1
 41 106 l 1
 209 169 l 1
 209 1073 l 1
 25 1131 l 1
EndSplineSet
EndChar

StartChar: Hbar
Encoding: -1 294 40
Width: 1528
VWidth: 0
Flags: HW
LayerCount: 2
Fore
SplineSet
69 808 m 1
 79.5 968.5 l 1
 282 968.5 l 1
 315 941 l 1
 1234 941 l 1
 1253 968.5 l 1
 1458.5 968.5 l 1
 1450 808 l 1
 1258 808 l 1
 1234 848 l 1
 309 848 l 1
 282 808 l 1
 69 808 l 1
EndSplineSet
Refer: 39 72 N 1 0 0 1 14 0 2
EndChar

StartChar: I
Encoding: -1 73 41
Width: 706
VWidth: 0
Flags: HW
LayerCount: 2
Fore
SplineSet
25 1131 m 1
 40.5 1244 l 1
 676 1244 l 1
 663 1126 l 1
 489 1073.5 l 1
 489 168.5 l 1
 669.5 120 l 1
 658 0 l 1
 29.5 0 l 1
 38.5 108 l 1
 210 171 l 1
 210 1073 l 1
 25 1131 l 1
EndSplineSet
EndChar

StartChar: J
Encoding: -1 74 50
Width: 699
VWidth: 0
Flags: HW
LayerCount: 2
Fore
SplineSet
-2 -194 m 1
 147 -63 218 89.5 218 241 c 2
 218.5 1073 l 1
 38.5 1131 l 1
 53 1244 l 1
 684 1244 l 1
 669 1131 l 1
 499 1078.5 l 1
 498.5 409.5 l 2
 499.5 1 406.5 -124.5 83.5 -326 c 1
 -2 -194 l 1
EndSplineSet
EndChar

StartChar: K
Encoding: -1 75 51
Width: 1372
VWidth: 0
Flags: HW
LayerCount: 2
Fore
SplineSet
23.5 1131 m 1
 46.5 1244 l 1
 676.5 1244 l 1
 661 1131 l 1
 507 1060.5 l 1
 507 182 l 1
 699 114 l 1
 687.5 0 l 1
 28.5 0 l 1
 41.5 106 l 1
 228.5 185 l 1
 228.5 1055 l 1
 23.5 1131 l 1
541.5 640.5 m 1
 564 665 621.753 729.508 650 769 c 2
 859 1062 l 1
 788 1125 l 1
 805.5 1244 l 1
 1312.5 1244 l 1
 1291.5 1131 l 1
 1091 1060.5 l 1
 788.5 669 l 1
 981 427.5 l 2
 1137.28 228.075 1202 149.5 1347.5 111 c 2
 1378.5 101.5 l 1
 1357.5 1.5 l 1
 1311.5 -15.5 1221.5 -24 1182 -24 c 0
 981.5 -24 855 114 734.5 303.5 c 2
 540.5 594.5 l 1
 541.5 640.5 l 1
EndSplineSet
EndChar

StartChar: L
Encoding: -1 76 53
Width: 1149
VWidth: 0
Flags: W
HStem: 0 148<488 844> 1224.5 20G<37.63 687>
VStem: 204.5 283.5<169 1057.5>
LayerCount: 2
Fore
SplineSet
29 0 m 1
 41.5 106 l 1
 204.5 169 l 1
 204.5 1057.5 l 1
 24.5 1133 l 1
 40.5 1244.5 l 1
 687 1244.5 l 1
 671.5 1133 l 1
 488 1060.5 l 1
 488 148 l 1
 844 137 l 1
 996.5 398.5 l 1
 1122 380.5 l 1
 1080 0 l 1
 29 0 l 1
EndSplineSet
EndChar

StartChar: Lslash
Encoding: -1 321 57
Width: 1149
VWidth: 0
Flags: HW
LayerCount: 2
Fore
SplineSet
57.5 480 m 1
 59 624.5 l 1
 672 878.5 l 1
 668.5 737 l 1
 57.5 480 l 1
EndSplineSet
Refer: 53 76 N 1 0 0 1 0 0 2
EndChar

StartChar: M
Encoding: -1 77 58
Width: 1752
VWidth: 0
Flags: HW
LayerCount: 2
Fore
SplineSet
12 0 m 1
 28 114 l 1
 195.5 177 l 1
 261 1078 l 1
 77.5 1127.5 l 1
 90.5 1244 l 1
 595 1244 l 1
 669.5 1044.5 l 1
 878.5 425.5 l 1
 1111.5 1062 l 1
 1180.5 1244 l 1
 1678 1244 l 1
 1664 1127.5 l 1
 1499 1081.5 l 1
 1560 171.5 l 1
 1739 120.5 l 1
 1727 0 l 1
 1138.5 0 l 1
 1155.5 114 l 1
 1294.5 177 l 1
 1240 890 l 1
 937 40.5 l 1
 731.5 11.5 l 1
 440.5 877 l 1
 392.5 171.5 l 1
 548.5 120.5 l 1
 529.5 0 l 1
 12 0 l 1
EndSplineSet
EndChar

StartChar: N
Encoding: -1 78 59
Width: 1396
VWidth: 0
Flags: HW
LayerCount: 2
Fore
SplineSet
27 1127.5 m 1
 39.5 1244 l 1
 435 1244 l 1
 1022 401.5 l 1
 1022 1073 l 1
 835.5 1131 l 1
 853.5 1244 l 1
 1379.5 1244 l 1
 1360.5 1131 l 1
 1193 1078.5 l 1
 1193 8 l 1
 975 -29.5 l 1
 387 790 l 1
 387 162.5 l 1
 568.5 114 l 1
 556.5 0 l 1
 28.5 0 l 1
 37.5 106 l 1
 206.5 169 l 1
 206.5 1060 l 1
 27 1127.5 l 1
EndSplineSet
EndChar

StartChar: O
Encoding: -1 79 64
Width: 1402
VWidth: 0
Flags: HW
LayerCount: 2
Fore
SplineSet
30.5 619 m 0
 30.5 1004 295.5 1270.5 729.5 1270.5 c 0
 1117.5 1270.5 1373 1031 1373 616 c 0
 1373 235 1084.5 -27 659.5 -27 c 0
 252 -27 30.5 248 30.5 619 c 0
365.5 673.5 m 0
 365.5 454 446.5 121 711 121 c 0
 948.5 121 1030 308.5 1030 573 c 0
 1030 788 952.5 1135 682.5 1135 c 0
 437.5 1135 365.5 935 365.5 673.5 c 0
EndSplineSet
EndChar

StartChar: OE
Encoding: -1 338 65
Width: 1770
VWidth: 0
Flags: HW
LayerCount: 2
Fore
SplineSet
32 619 m 0
 32 1015 209.5 1270.5 633.5 1270.5 c 0
 712 1270.5 773.5 1261 825.5 1242.5 c 1
 1684.5 1244 l 1
 1653.5 875 l 1
 1525 894.5 l 1
 1463.5 1112 l 1
 1064.5 1112 l 1
 1064.5 694 l 1
 1303.5 702.062 l 1
 1334.5 762.911 l 1
 1494.5 779.5 l 1
 1461 461.5 l 1
 1310 465.187 l 1
 1283.5 554.135 l 1
 1064.5 561.5 l 1
 1064.5 137 l 1
 1504 138 l 1
 1626 377 l 1
 1750 362 l 1
 1720.5 0 l 1
 779.5 0 l 1
 714.5 -17 644.5 -27 563 -27 c 0
 203.5 -27 32 228.5 32 619 c 0
366.5 673.5 m 0
 366.5 481.5 417.5 137 636.5 137 c 0
 683.5 137 732.5 150.5 783.5 181 c 1
 783.5 1092 l 1
 725.5 1121 666.5 1140 608.5 1140 c 0
 450.5 1140 366.5 1010 366.5 673.5 c 0
EndSplineSet
EndChar

StartChar: Oslash
Encoding: -1 216 73
Width: 1402
VWidth: 0
Flags: HW
LayerCount: 2
Fore
SplineSet
124 -33.5 m 1
 292 201.5 l 1
 398.5 229.5 l 1
 969 1098.5 l 1
 974 1168 l 1
 1073.5 1293 l 1
 1271 1271.5 l 1
 1103 1060.5 l 1
 1021 1029 l 1
 442.5 141.5 l 1
 413.5 74 l 1
 320.5 -60.5 l 1
 124 -33.5 l 1
371.5 673.5 m 0
 371.5 454 452.5 121 717 121 c 0
 954.5 121 1035.5 308.5 1035.5 573 c 0
 1035.5 788 958.5 1135 688.5 1135 c 0
 443.5 1135 371.5 935 371.5 673.5 c 0
36.5 619 m 1
 36.5 1004 301.5 1270.5 735.5 1270.5 c 0
 1123.5 1270.5 1379 1031 1379 616 c 0
 1379 235 1091 -27 666 -27 c 1
 258.658 -27 35.0568 248.001 36.5 619 c 1
EndSplineSet
EndChar

StartChar: P
Encoding: -1 80 75
Width: 1136
VWidth: 0
Flags: HW
LayerCount: 2
Fore
SplineSet
25 0 m 1
 41.5 106 l 1
 218.5 169 l 1
 218.5 1056 l 1
 38 1093 l 1
 49.5 1211 l 1
 222 1237 394 1261 611.5 1261 c 0
 899 1261 1120 1185 1120 890.5 c 0
 1120 652 912 470 641 470 c 0
 610 470 580 472 550.5 474 c 1
 525.5 602.5 l 1
 562.5 603 l 2
 744.5 606 831.5 699 831.5 848.5 c 0
 831.5 995 756 1113 576 1113 c 0
 545.5 1113 503 1108.5 491.5 1106.5 c 1
 491.5 177.5 l 1
 730.5 120 l 1
 711.5 0 l 1
 25 0 l 1
EndSplineSet
EndChar

StartChar: Q
Encoding: -1 81 76
Width: 1404
VWidth: 0
Flags: HW
LayerCount: 2
Fore
SplineSet
30.5 608.5 m 0
 30.5 994 314 1270.5 738 1270.5 c 0
 1123.5 1270.5 1375 1030 1375 626 c 0
 1375 323 1177 77.5 905.5 5 c 1
 968 -122.5 1100.5 -196 1339 -237.5 c 1
 1339 -249.5 1327 -334 1324 -343 c 1
 1248.5 -373 1169 -384 1093.5 -384 c 0
 890 -384 706 -265.5 713.5 -23.5 c 1
 700 -25.5 677.5 -27 661.5 -27 c 0
 268 -27 30.5 237.5 30.5 608.5 c 0
349 675 m 0
 349 441.5 463 136 780 107.5 c 1
 993.5 181 1046.5 355.5 1046.5 568 c 0
 1046.5 806.5 939 1131 680.5 1131 c 0
 460 1131 349 961 349 675 c 0
EndSplineSet
EndChar

StartChar: R
Encoding: -1 82 77
Width: 1332
VWidth: 0
Flags: HW
LayerCount: 2
Fore
SplineSet
25 0 m 1
 40 106 l 1
 218.5 169 l 1
 218.5 1048 l 1
 37 1086.5 l 1
 48 1205 l 1
 194 1228 446.5 1254 594.5 1254 c 0
 933.5 1254 1138.5 1171.5 1138.5 925.5 c 0
 1138.5 769 1005 633 857 580.5 c 1
 857 579.5 l 1
 1007.5 374.5 l 2
 1107.5 238 1177.91 145.099 1314 109.5 c 2
 1350 100 l 1
 1327 0.5 l 1
 1284 -13.5 1228.5 -24 1158.5 -24 c 0
 956 -24 838.5 98.5 748 268 c 2
 623.5 498 l 1
 499.5 498 l 1
 499.5 177.5 l 1
 665 119 l 1
 654 0 l 1
 25 0 l 1
499.5 648 m 1
 675 648 l 1
 763.5 685.5 834.5 755.5 834.5 873.5 c 0
 834.5 1012.5 737.5 1122 576 1122 c 0
 535.5 1122 505 1119.5 499.5 1119 c 1
 499.5 648 l 1
EndSplineSet
EndChar

StartChar: S
Encoding: -1 83 81
Width: 934
VWidth: 0
Flags: HW
LayerCount: 2
Fore
SplineSet
33 124 m 1
 56.5 438.5 l 1
 196 417 l 1
 236.5 229.5 l 1
 275.5 171 363 129 452 129 c 0
 544 129 634 183.5 634 284 c 0
 634 512 49 488 49 886.5 c 0
 49 1143.5 285 1267.5 513.5 1267.5 c 0
 621 1267.5 766.5 1230 831.5 1172.5 c 1
 831.5 1156.5 806.5 850.5 806.5 850.5 c 1
 670.5 871.5 l 1
 638.5 1038.5 l 1
 607.5 1088.5 524.5 1135.5 445.5 1135.5 c 0
 361 1135.5 302 1087 302 992.5 c 0
 302 751.5 923 767 923 367.5 c 0
 923 96 634.5 -23.5 427 -23.5 c 0
 240 -23.5 92 42.5 33 124 c 1
EndSplineSet
EndChar

StartChar: T
Encoding: -1 84 86
Width: 1205
VWidth: 0
Flags: HW
LayerCount: 2
Fore
SplineSet
11.5 1244 m 1
 1199 1244 l 1
 1166 851 l 1
 1027 874 l 1
 976 1112 l 1
 731.5 1112 l 1
 731.5 161 l 1
 925 116.5 l 1
 910 0 l 1
 272 0 l 1
 282 107 l 1
 455 165 l 1
 455 1112 l 1
 217.5 1112 l 1
 147.5 847.5 l 1
 17 867 l 1
 11.5 1244 l 1
EndSplineSet
EndChar

StartChar: Thorn
Encoding: -1 222 91
Width: 1139
VWidth: 0
Flags: HW
LayerCount: 2
Fore
SplineSet
25 1131 m 1
 40.5 1244 l 1
 675.5 1244 l 1
 662.5 1126 l 1
 487.5 1073.5 l 1
 487.5 1001 l 1
 527 1005 569 1008.5 609 1008.5 c 0
 896.5 1008.5 1117 947 1117 652.5 c 0
 1117 414 917.5 251 646.5 251 c 0
 615.5 251 581.5 253 547.5 256.5 c 1
 523 386 l 1
 723.088 379.314 828.5 447.009 828.5 610.5 c 0
 828.5 757 750 858 575 858 c 0
 544.5 858 500 853 488.5 851 c 1
 487.5 172 l 1
 696 121.5 l 1
 683 -0.5 l 1
 28 -0.5 l 1
 38 107.5 l 1
 210 170 l 1
 210 1073 l 1
 25 1131 l 1
EndSplineSet
EndChar

StartChar: U
Encoding: -1 85 92
Width: 1472
VWidth: 0
Flags: HW
LayerCount: 2
Fore
SplineSet
11 1131 m 1
 32 1244 l 1
 663 1244 l 1
 647.5 1131 l 1
 480.5 1078.5 l 1
 480.5 525.5 l 2
 480.5 272.5 612.5 169 802.5 169 c 0
 980 169 1093 272.5 1093.5 509.5 c 2
 1095 1073 l 1
 915.5 1131 l 1
 930.5 1244 l 1
 1462 1244 l 1
 1448 1131 l 1
 1282.5 1078.5 l 1
 1278 540 l 2
 1274.5 155 1096 -27 737 -27 c 0
 505.5 -27 198 21.5 198 476.5 c 2
 198 1073 l 1
 11 1131 l 1
EndSplineSet
EndChar

StartChar: V
Encoding: -1 86 106
Width: 1352
VWidth: 0
Flags: HW
LayerCount: 2
Fore
SplineSet
-10.5 1127.5 m 1
 4.5 1244 l 1
 651.5 1244 l 1
 635 1127.5 l 1
 469 1078.5 l 1
 743 336 l 1
 1012 1075.5 l 1
 834 1127.5 l 1
 845 1244 l 1
 1365 1244 l 1
 1354 1127.5 l 1
 1221 1078.5 l 1
 811.5 19.5 l 1
 559 -23.5 l 1
 135.5 1075.5 l 1
 -10.5 1127.5 l 1
EndSplineSet
EndChar

StartChar: W
Encoding: -1 87 107
Width: 1913
VWidth: 0
Flags: HW
LayerCount: 2
Fore
SplineSet
-5.5 1128.5 m 1
 4.5 1244 l 1
 639 1244 l 1
 613.5 1124.5 l 1
 453.5 1078.5 l 1
 651.5 378.5 l 1
 879.5 1197 l 1
 1137 1229.5 l 1
 1364 394.5 l 1
 1571 1078 l 1
 1397 1126 l 1
 1413 1244 l 1
 1927 1244 l 1
 1909 1127.5 l 1
 1781.5 1081.5 l 1
 1431.5 21 l 1
 1188 -23.5 l 1
 953.5 836 l 1
 722 21 l 1
 467.5 -24 l 1
 152.5 1074.5 l 1
 -5.5 1128.5 l 1
EndSplineSet
EndChar

StartChar: X
Encoding: -1 88 112
Width: 1268
VWidth: 0
Flags: HW
LayerCount: 2
Fore
SplineSet
-0.5 0 m 1
 18 116.5 l 1
 146 177 l 1
 492.215 613.214 l 1
 152 1067.5 l 1
 20.5 1116 l 1
 40.5 1244 l 1
 619.5 1244 l 1
 601 1121 l 1
 477 1065.5 l 1
 680.591 780.219 l 1
 895.5 1070 l 1
 753.5 1125 l 1
 773.5 1244 l 1
 1245 1244 l 1
 1229 1127.5 l 1
 1100.5 1072.5 l 1
 778.909 660.88 l 1
 1145.5 169.5 l 1
 1264.5 129.5 l 1
 1245 0 l 1
 671.5 0 l 1
 692.5 120 l 1
 817.5 176 l 1
 594.729 497.397 l 1
 368 174.5 l 1
 522.5 125 l 1
 499.5 0 l 1
 -0.5 0 l 1
EndSplineSet
EndChar

StartChar: Y
Encoding: -1 89 113
Width: 1215
VWidth: 0
Flags: HW
LayerCount: 2
Fore
SplineSet
-10.5 1128.5 m 1
 12 1244.5 l 1
 596.5 1244.5 l 1
 576.5 1128.5 l 1
 460 1079 l 1
 673 689.5 l 1
 880.5 1075.5 l 1
 739.5 1127.5 l 1
 756.5 1244 l 1
 1215.5 1244 l 1
 1198.5 1127.5 l 1
 1079 1078.5 l 1
 748.5 513.5 l 1
 748.5 167.5 l 1
 913.5 110 l 1
 902 0 l 1
 298 0 l 1
 312 106 l 1
 466.5 169 l 1
 466.5 494.5 l 1
 125.5 1076.5 l 1
 -10.5 1128.5 l 1
EndSplineSet
EndChar

StartChar: Z
Encoding: -1 90 118
Width: 1084
VWidth: 0
Flags: HW
LayerCount: 2
Fore
SplineSet
23.5 170 m 1
 711.5 1109 l 1
 273 1109 l 1
 203 857.5 l 1
 58 882.5 l 1
 68.5 1244 l 1
 1048 1244 l 1
 1044 1128.5 l 1
 319.5 153 l 1
 783.5 138 l 1
 938.5 404 l 1
 1060 384.5 l 1
 1001 0 l 1
 34 0 l 1
 23.5 170 l 1
EndSplineSet
EndChar

StartChar: a
Encoding: -1 97 122
Width: 881
VWidth: 0
Flags: W
HStem: -23.5 175.5<172.25 393.624 843 860.162> 413 85.5<349.23 483> 787 137.35<268.598 539.551>
VStem: 23.5 235.5<165.942 322.429> 52.5 177.5<629.253 757.526> 483 235<182.485 413 498.5 727.498>
LayerCount: 2
Fore
SplineSet
23.5 178 m 0xf4
 23.5 340.685 172.487 487.996 483 498.5 c 1
 483 573.5 l 2
 483 687.5 434.5 787 331.5 787 c 0
 257.5 787 247.5 702 230 572 c 1
 143.5 572 52.5 583.51 52.5 689 c 0xec
 52.5 801 285.227 924.35 458.302 924.35 c 0
 620.8 924.35 718 838.185 718 617 c 2
 718 302 l 2
 718 204.5 746.031 171.314 843 153 c 2
 882 145.5 l 1
 863 17.5 l 1
 802 -3 770.5 -21 692 -21 c 0
 579.5 -21 529 41.5 513.5 111 c 2
 511 125 l 1
 499 128 l 1
 470.5 61.5 367 -23.5 232 -23.5 c 0
 112.5 -23.5 23.5 44.5 23.5 178 c 0xf4
259 247 m 0xf4
 259 202 292.5 152 355 152 c 0
 402.5 152 452.5 182.5 483 211 c 1
 483 413 l 1
 312 384.5 259 316.5 259 247 c 0xf4
EndSplineSet
EndChar

StartChar: acute
Encoding: -1 180 127
Width: 418
VWidth: 0
Flags: HW
LayerCount: 2
Fore
SplineSet
86 1389.5 m 1
 200 1704.5 l 1
 361.5 1675.5 l 1
 180 1363 l 1
 86 1389.5 l 1
EndSplineSet
EndChar

StartChar: ae
Encoding: -1 230 129
Width: 1265
VWidth: 0
Flags: HW
LayerCount: 2
Fore
SplineSet
22.5 172.5 m 0
 22.5 335 153.5 466 482.5 498 c 1
 482.5 573.5 l 2
 482.5 687.5 432.5 773.5 342 773.5 c 0
 265.5 773.5 250 715 231 588 c 1
 160 581 60.5 604.5 60.5 712.5 c 0
 60.5 833.5 311.5 924 452 924 c 0
 561.5 924 626 893.5 662 829.5 c 1
 738 891 830 924.5 919 924.5 c 0
 1101.5 924.5 1221.5 792 1221.5 580.5 c 0
 1221.5 549.5 1209 455.5 1202 423 c 1
 722.5 411.5 l 1
 730.5 267 820 142.5 986 142.5 c 0
 1059 142.5 1136 156.5 1223.5 205 c 1
 1243 113 l 1
 1157.5 10.5 1001.5 -30.5 870.5 -30.5 c 0
 720.764 -30.5 585.5 42.5 537.5 158 c 1
 478 21.5 345.5 -23.5 221.5 -23.5 c 0
 117 -23.5 22.5 39 22.5 172.5 c 0
258 241 m 0
 258 181 293 144.5 355 144.5 c 0
 407.5 144.5 468.5 187.5 482.5 248 c 1
 482.5 403.5 l 1
 295 376.5 258 310.5 258 241 c 0
721 511.5 m 1
 962.5 537 l 1
 967 552.5 970 595 970 610 c 0
 970 702.5 937 772 858 772 c 0
 783 772 725 673.5 721 511.5 c 1
EndSplineSet
EndChar

StartChar: ampersand
Encoding: -1 38 132
Width: 1333
VWidth: 0
Flags: HW
LayerCount: 2
Fore
SplineSet
16.5 296.5 m 0
 16.5 483.734 139.908 591.844 309.294 682.709 c 1
 237 746.5 184.5 856.28 184.5 954.5 c 0
 184.5 1140.5 365 1272 536.5 1272 c 0
 700 1272 821.5 1192 821.5 1017.5 c 0
 821.5 891.146 749.683 801.879 629.01 723.638 c 1
 629.041 710 l 1
 817.537 505.884 l 1
 971 730 l 1
 855 770.5 l 1
 872 888.5 l 1
 1320.5 888.5 l 1
 1304.5 770.5 l 1
 1132.5 722 l 1
 917.983 404.641 l 1
 1047.17 267.348 1168.88 151.013 1245.5 120.5 c 2
 1285 105.5 l 1
 1262.5 3 l 1
 1231 -7.5 1160.5 -18.5 1112 -18.5 c 0
 987.5 -18.5 897.5 49.5 827.5 124 c 2
 766.589 187.294 l 1
 670.56 60.3438 546.997 -24 379.5 -24 c 0
 178 -24 16.5 67.5 16.5 296.5 c 0
276.5 393 m 0
 276.5 264 348 154.5 468 154.5 c 0
 551.926 154.5 623.177 218.518 667.88 287.674 c 1
 397.143 587.5 l 1
 383.974 590.805 l 1
 325.666 547.236 276.5 482.495 276.5 393 c 0
399 1026.5 m 0
 399 950.414 475.095 859.615 531.145 809.656 c 1
 581.706 853.627 613.5 897.223 613.5 980.5 c 0
 613.5 1080.5 573 1145 500 1145 c 0
 440.5 1145 399 1091 399 1026.5 c 0
EndSplineSet
EndChar

StartChar: ampersand.osf
Encoding: -1 -1 133
Width: 1169
VWidth: 0
Flags: HW
LayerCount: 2
Fore
SplineSet
53.5088 209.5 m 1
 53.5 517.5 527.509 508.5 527.509 761 c 0
 527.509 864.572 469.372 905.48 428.091 905.48 c 0
 393.48 905.48 362.189 861.109 362.189 806.714 c 0
 362.189 752.5 393.5 703 453.509 635.5 c 2
 786.5 260 l 2
 867.91 164.913 951.207 135.826 1026.51 116 c 2
 1055.01 108 l 1
 1032.51 6.5 l 1
 1001.01 -4 939.009 -15.5 890.509 -15.5 c 0
 767.009 -15.5 662.009 67.5 588.009 158.5 c 2
 254.509 540.5 l 2
 199.276 602.257 164.739 673.78 164.739 743.762 c 0
 164.739 882.737 299.205 1007.5 455.509 1007.5 c 0
 603.509 1007.5 711.509 920.049 710.509 801.5 c 0
 707.509 494.5 295.977 516 295.977 256.628 c 0
 295.977 200.518 337.157 133.03 411.093 133.03 c 0
 536.5 133.03 653.672 221.916 777.009 474.5 c 1
 678.009 529 l 1
 695.509 631.5 l 1
 1091.51 631.5 l 1
 1075.51 529 l 1
 921.509 478 l 1
 714.009 128 555.009 -18.5 327.009 -18.5 c 0
 165 -18.5 53.5088 58 53.5088 209.5 c 1
EndSplineSet
EndChar

StartChar: approxequal
Encoding: -1 8776 135
Width: 942
VWidth: 0
Flags: HW
LayerCount: 2
Back
SplineSet
36.6953 504 m 1
 22.6953 647 96.6953 820.5 299.695 780.5 c 2
 695.195 717 l 2
 748.195 707 783.695 768.5 789.695 791.5 c 1
 908.695 782 l 1
 908.695 584.5 809.695 478.5 622.695 517 c 2
 240.195 580.5 l 2
 174.195 594 156.695 501 153.695 492.5 c 1
 36.6953 504 l 1
36.6953 431 m 1
 22.6953 585 95.6436 746.973 299.695 707 c 2
 695.195 643.5 l 2
 755.438 632.639 785.195 701 789.695 718.5 c 1
 908.695 708.5 l 1
 910.195 509.5 818.195 405 622.695 444 c 2
 240.195 507 l 2
 165.125 521.282 153.695 419.5 153.695 419.5 c 1
 36.6953 431 l 1
EndSplineSet
Fore
SplineSet
36.6953 554 m 1
 22.6953 697 96.6953 870.5 299.695 830.5 c 2
 695.195 767 l 2
 748.195 757 783.695 818.5 789.695 841.5 c 1
 908.695 832 l 1
 908.695 634.5 809.695 528.5 622.695 567 c 2
 240.195 630.5 l 2
 174.195 644 156.695 551 153.695 542.5 c 1
 36.6953 554 l 1
36.6953 511 m 1
 22.6953 665 95.6435 826.973 299.695 787 c 2
 695.195 723.5 l 2
 755.438 712.639 785.195 781 789.695 798.5 c 1
 908.695 788.5 l 1
 910.195 589.5 818.195 485 622.695 524 c 2
 240.195 587 l 2
 165.125 601.282 153.695 499.5 153.695 499.5 c 1
 36.6953 511 l 1
EndSplineSet
EndChar

StartChar: asciicircum
Encoding: -1 94 137
Width: 680
VWidth: 0
Flags: HW
LayerCount: 2
Fore
SplineSet
21 825.5 m 1
 286 1237 l 1
 385.5 1250 l 1
 660.5 823.5 l 1
 571 788 l 1
 327.5 1018 l 1
 317 1018 l 1
 103 794.5 l 1
 21 825.5 l 1
EndSplineSet
EndChar

StartChar: asciitilde
Encoding: -1 126 138
Width: 885
VWidth: 0
Flags: HW
LayerCount: 2
Fore
SplineSet
43.1953 347 m 1
 32.1953 447 102.695 693.5 306.695 653.5 c 2
 702.695 589.5 l 2
 755.695 580 796.695 665 796.695 665 c 1
 915.695 655 l 1
 914.695 516 820.195 320.5 629.695 360 c 2
 247.195 423.5 l 2
 185.695 436.5 159.695 335.5 159.695 335.5 c 1
 43.1953 347 l 1
EndSplineSet
EndChar

StartChar: asterisk
Encoding: -1 42 139
Width: 774
VWidth: 0
Flags: HW
LayerCount: 2
Fore
SplineSet
164 1102.5 m 1
 273 1183.5 l 1
 376.5 990.5 l 1
 493.5 1209.5 l 1
 602.5 1132 l 1
 447 963 l 1
 696.5 933.5 l 1
 656 806 l 1
 452 888 l 1
 495.5 653.5 l 1
 359 654 l 1
 383 864 l 1
 164 756 l 1
 122 888.5 l 1
 341 926.5 l 1
 164 1102.5 l 1
EndSplineSet
EndChar

StartChar: at
Encoding: -1 64 140
Width: 1396
VWidth: 0
Flags: HW
LayerCount: 2
Fore
SplineSet
27 325.5 m 0
 27 705 348 1043.5 834.5 1043.5 c 0
 1113.5 1043.5 1377 895 1377 605.5 c 0
 1377 323 1146.5 75.5 873 75.5 c 0
 795.5 75.5 728 108 731 192 c 1
 720.5 192 l 1
 674.5 125 604.5 72.5 534.5 72.5 c 0
 432.5 72.5 350.5 164 350.5 334 c 0
 350.5 580 545.5 792.5 810 792.5 c 0
 864 792.5 919.5 788 974.5 775.5 c 1
 992 756 l 1
 951.5 390 l 1
 941.923 296.659 929.14 205.5 974.5 205.5 c 0
 1111 205.5 1190.5 411 1190.5 558 c 0
 1190.5 808 1017.5 942.5 781 942 c 0
 434 941.5 228.5 670 228.5 371 c 0
 228.5 74.5 405.5 -114 755 -114 c 0
 896.5 -114 1040 -56.5 1111.5 3.5 c 1
 1152 -83.5 l 1
 1050 -154 900 -224.5 700 -224.5 c 0
 324.5 -224.5 27 -38.5 27 325.5 c 0
567 377.5 m 0
 567 261.5 596.5 233.5 636 233.5 c 0
 671.5 233.5 707 253.5 732.5 276 c 1
 782.5 675 l 1
 770.5 675 752.5 686 721.5 686 c 0
 614.5 686 567 478 567 377.5 c 0
EndSplineSet
EndChar

StartChar: b
Encoding: -1 98 142
Width: 1016
VWidth: 0
Flags: HW
LayerCount: 2
Fore
SplineSet
-7.5 1123.5 m 1
 13 1244 l 1
 339.5 1267.5 l 1
 380 1229 l 1
 380 863.5 l 1
 365.5 760.5 l 1
 378.5 757.5 l 1
 458.5 847 540.5 914.5 653 914.5 c 0
 858.5 914.5 991 738.5 991 484.5 c 0
 991 167 740.5 -23 466.5 -23 c 0
 377.5 -23 228.5 -1.5 140.5 50 c 1
 140.5 1047 l 1
 -7.5 1123.5 l 1
380 207 m 1
 421.5 167.5 485 144.5 548 144.5 c 0
 645.5 144.5 727 243.5 727 427.5 c 0
 727 550 688.5 706.5 561 706.5 c 0
 513.5 706.5 449.5 690.5 380 625 c 1
 380 207 l 1
EndSplineSet
EndChar

StartChar: backslash
Encoding: -1 92 143
Width: 686
VWidth: 0
Flags: HW
LayerCount: 2
Fore
SplineSet
18.5 1303.5 m 1
 203 1291 l 1
 664 -393 l 1
 486.5 -382.5 l 1
 18.5 1303.5 l 1
EndSplineSet
EndChar

StartChar: bar
Encoding: -1 124 144
Width: 263
VWidth: 0
Flags: HW
LayerCount: 2
Fore
SplineSet
54.5 -364.5 m 1
 54.5 1260 l 1
 210 1248 l 1
 210 -379.5 l 1
 54.5 -364.5 l 1
EndSplineSet
EndChar

StartChar: braceright
Encoding: -1 125 146
Width: 615
VWidth: 0
Flags: HW
LayerCount: 2
Fore
SplineSet
11 -378.5 m 1
 21.5 -225 l 1
 120.5 -220 l 2
 289 -211.5 78.5 322.5 345.5 442 c 1
 345.5 452 l 1
 78.5 509 280 1090 131.5 1099 c 2
 24 1103.5 l 1
 17.5 1255 l 1
 188 1255 l 2
 597 1255 275.5 580.5 559.5 527 c 1
 613 516.5 l 1
 613 367.5 l 1
 556.5 357 l 2
 280.5 305.5 600.5 -378.5 185.5 -378.5 c 2
 11 -378.5 l 1
EndSplineSet
EndChar

StartChar: bracketright
Encoding: -1 93 148
Width: 475
VWidth: 0
Flags: HW
LayerCount: 2
Fore
SplineSet
0 -246.5 m 1
 231.5 -226.5 l 1
 231.5 1110.5 l 1
 4 1130 l 1
 25 1255 l 1
 419.5 1255 l 1
 422.5 -377 l 1
 19 -376.5 l 1
 0 -246.5 l 1
EndSplineSet
EndChar

StartChar: breve
Encoding: -1 728 149
Width: 485
VWidth: 0
Flags: HW
LayerCount: 2
Fore
SplineSet
45 1565 m 1
 117.5 1591.5 l 1
 142.5 1549 175 1515.5 249 1515.5 c 0
 324 1515.5 365.5 1547.5 391.5 1592 c 1
 453.5 1565 l 1
 423 1477 359 1372 249 1372 c 0
 120 1372 67 1478.5 45 1565 c 1
EndSplineSet
EndChar

StartChar: brokenbar
Encoding: -1 166 150
Width: 277
VWidth: 0
Flags: HW
LayerCount: 2
Fore
SplineSet
54.5 -358.5 m 1
 54.5 419 l 1
 223.5 399 l 1
 223.5 -379.5 l 1
 54.5 -358.5 l 1
54.5 534 m 1
 54.5 1267 l 1
 221.5 1248 l 1
 221.5 517 l 1
 54.5 534 l 1
EndSplineSet
EndChar

StartChar: c
Encoding: -1 99 152
Width: 817
VWidth: 0
Flags: HW
LayerCount: 2
Fore
SplineSet
25 420.5 m 0
 25 744.5 277 933.5 505.5 933.5 c 0
 675 933.5 769.5 844 769.5 735.5 c 0
 769.5 648 700.5 605 605 596 c 1
 561 722 515 791 443.5 791 c 0
 340.5 791 282 696.5 282 511 c 0
 282 349.5 368 145 550.5 145 c 0
 655 145 711.5 173 773.5 211 c 1
 806 130 l 1
 754 44 613.5 -30.5 463.5 -30.5 c 0
 166.5 -30.5 25 164 25 420.5 c 0
EndSplineSet
EndChar

StartChar: caron
Encoding: -1 711 154
Width: 518
VWidth: 0
Flags: HW
LayerCount: 2
Fore
SplineSet
46 1538 m 1
 179.5 1582.5 l 1
 310 1478 l 1
 320 1478 l 1
 424.5 1580.5 l 1
 498 1560.5 l 1
 317 1369 l 1
 239.5 1357.5 l 1
 46 1538 l 1
EndSplineSet
EndChar

StartChar: cedilla
Encoding: -1 184 158
Width: 360
VWidth: 0
Flags: HW
LayerCount: 2
Fore
SplineSet
40.5 -315.5 m 1
 109 -305.5 162 -272 162 -242 c 0
 162 -205.493 81.5 -167 37 -141 c 1
 180 3 l 1
 294 3 l 1
 208.5 -79.5 l 1
 253 -103.5 330.5 -143 330.5 -216.5 c 0
 330.5 -312 229 -367.5 68 -388.5 c 1
 40.5 -315.5 l 1
EndSplineSet
EndChar

StartChar: cent
Encoding: -1 162 159
Width: 837
VWidth: 0
Flags: HW
LayerCount: 2
Fore
SplineSet
20.5 433.5 m 0
 20.5 757.5 273.5 976 502 976 c 0
 688 976 770 867 770 758.5 c 0
 770 671 706.5 618.5 611 609.5 c 1
 560.5 750.5 511.5 828 432.5 828 c 0
 332 828 277.5 694.5 277.5 519 c 0
 277.5 357.5 363.5 160 546 160 c 0
 650.5 160 712 193 774 231 c 1
 806.5 135 l 1
 754.5 49 609 -30.5 459 -30.5 c 0
 162 -30.5 20.5 177 20.5 433.5 c 0
346.5 1193 m 1
 533 1210 l 1
 508.5 942 l 1
 377.5 942 l 1
 346.5 1193 l 1
356.5 -266 m 1
 382.5 0 l 1
 512 0 l 1
 545 -250 l 1
 356.5 -266 l 1
EndSplineSet
EndChar

StartChar: circumflex
Encoding: -1 710 160
Width: 498
VWidth: 0
Flags: HW
LayerCount: 2
Fore
SplineSet
45 1376 m 1
 199.5 1563 l 1
 285.5 1580.5 l 1
 456.5 1385 l 1
 386.5 1357 l 1
 240.5 1442.5 l 1
 228 1442.5 l 1
 107 1356 l 1
 45 1376 l 1
EndSplineSet
EndChar

StartChar: comma
Encoding: -1 44 162
Width: 439
VWidth: 0
Flags: HW
LayerCount: 2
Fore
SplineSet
30.5044 -251.5 m 1
 154.005 -215.5 204.005 -138 204.005 -75 c 0
 204.005 -18.5 161.505 23 102.504 23 c 0
 89.0044 23 74.5044 20.5 60.5044 15.5 c 1
 46.0044 43.5 38.0044 67 38.0044 96.5 c 0
 37.5044 196.5 117.004 248 200.005 248 c 0
 325.005 248 408.505 163.5 408.505 11 c 0
 408.505 -117.5 332.505 -290.5 64.0044 -345 c 1
 30.5044 -251.5 l 1
EndSplineSet
EndChar

StartChar: commaaccent
Encoding: -1 806 163
Width: 275
VWidth: 0
Flags: HW
HStem: -390 60<26 56.5793>
VStem: 72 197<-322.388 -154.188>
LayerCount: 2
Fore
SplineSet
0.620117 -212 m 1
 1.40332 -120.09 51.2861 -83.7402 109.998 -83.7402 c 0
 153.054 -83.7402 221 -114 221 -207 c 0
 221 -334.26 123 -396 19.9736 -391.79 c 1
 0.750977 -333.19 l 1
 51 -326 78 -302.37 78 -265 c 0
 78 -230.48 40.5439 -219.07 0.620117 -212 c 1
EndSplineSet
EndChar

StartChar: copyright
Encoding: -1 169 164
Width: 1383
VWidth: 0
Flags: HW
LayerCount: 2
Fore
SplineSet
26.5 666 m 0
 26.5 1078.5 330 1358.5 700.5 1358.5 c 0
 1113 1358.5 1368 1074.5 1368 674.5 c 0
 1368 318.5 1073.5 -2.5 691.5 -2.5 c 0
 284.5 -2.5 26.5 272.5 26.5 666 c 0
191 682.5 m 0
 191 337 405.5 131 698.5 131 c 0
 980.5 131 1211.5 337 1211.5 664.5 c 0
 1211.5 970 1041 1230.5 693.5 1230.5 c 0
 389.5 1230.5 191 992 191 682.5 c 0
EndSplineSet
Refer: 152 99 N 0.843235 0 0 0.843677 312.5 306 2
EndChar

StartChar: currency
Encoding: -1 164 165
Width: 806
VWidth: 0
Flags: HW
LayerCount: 2
Fore
SplineSet
34 723 m 1
 159.5 841 l 1
 267.5 725 l 1
 305 757 361.5 776 411 776 c 0
 459 776 511 760.5 545 735 c 1
 654 844.5 l 1
 774.5 720.5 l 1
 658.5 615.5 l 1
 677 582.5 688.5 532.5 688.5 489.5 c 0
 688.5 444 676 392 652.5 357 c 1
 778.5 238.5 l 1
 647.5 122.5 l 1
 535 245 l 1
 492.5 219.5 441.5 203.5 397.5 203.5 c 0
 361 203.5 317 216 281 237.5 c 1
 169.5 111 l 1
 44.5 233 l 1
 164.5 347 l 1
 139.5 383.5 124.5 437 124.5 486 c 0
 124.5 527.5 137 575.5 157.5 608.5 c 1
 34 723 l 1
273 492.5 m 0
 273 401 331 338.5 404.5 338.5 c 0
 481 338.5 537.5 397 537.5 486 c 0
 537.5 580.5 481.5 640 404.5 640 c 0
 331 640 273 581.5 273 492.5 c 0
EndSplineSet
EndChar

StartChar: d
Encoding: -1 100 166
Width: 1025
VWidth: 0
Flags: HW
LayerCount: 2
Fore
SplineSet
27 383 m 0
 27 658 218 905 489 905.5 c 0
 537.5 905.5 603 890 632.5 869.5 c 1
 638 869.5 l 1
 627 970 l 1
 627 1049 l 1
 464.5 1127 l 1
 484 1246.5 l 1
 818 1272 l 1
 858.5 1232.5 l 1
 858.5 295 l 2
 858.5 191 894.5 176.5 982 151.5 c 2
 1018.5 142 l 1
 1000.5 15.5 l 1
 933.5 -9.5 889 -23 809 -23 c 0
 704.5 -23 649 34 633.5 115.5 c 2
 631 125.5 l 1
 620 128.5 l 1
 565 52.5 489.5 -20 351.5 -20 c 0
 154.5 -20 27 143.5 27 383 c 0
283.5 464.5 m 0
 283.5 292.5 353 179 464 179 c 0
 521.5 179 584.5 210.5 624.5 244 c 1
 624.5 638 l 1
 571.5 713.5 502 751 449.5 751 c 0
 333 751 283.5 613 283.5 464.5 c 0
EndSplineSet
EndChar

StartChar: dagger
Encoding: -1 8224 167
Width: 803
VWidth: 0
Flags: HW
LayerCount: 2
Fore
SplineSet
18.5 689 m 1
 26 843.5 l 1
 322 836 l 1
 316 1255 l 1
 488.5 1244 l 1
 480.5 836 l 1
 786.5 843.5 l 1
 778 681 l 1
 480.5 691.5 l 1
 494.5 -362.5 l 1
 310 -351 l 1
 322 694.5 l 1
 18.5 689 l 1
EndSplineSet
EndChar

StartChar: daggerdbl
Encoding: -1 8225 168
Width: 814
VWidth: 0
Flags: HW
LayerCount: 2
Fore
SplineSet
26 689 m 1
 31.5 844.5 l 1
 326 837.5 l 1
 318.5 1255 l 1
 492 1244 l 1
 479.5 837.5 l 1
 783.5 844.5 l 1
 778 682.5 l 1
 479.5 692.5 l 1
 469.5 429.5 l 1
 473 193 l 1
 788.5 199 l 1
 782 41.5 l 1
 473 49.5 l 1
 484.5 -362.5 l 1
 310.5 -351.5 l 1
 320.5 49.5 l 1
 31.5 41.5 l 1
 41 205.5 l 1
 320.5 192.5 l 1
 329 497.5 l 1
 326 696 l 1
 26 689 l 1
EndSplineSet
EndChar

StartChar: dcroat
Encoding: -1 273 170
Width: 1025
VWidth: 0
Flags: HW
LayerCount: 2
Fore
SplineSet
27 383 m 0
 27 658 218 905 489 905.5 c 0
 537.5 905.5 603 890 632.5 869.5 c 1
 638 869.5 l 1
 627 970 l 1
 627 1041.5 l 1
 464.5 1119.5 l 1
 484 1239 l 1
 818 1264.5 l 1
 858.5 1225 l 1
 858.5 295 l 2
 858.5 191 894.5 176.5 982 151.5 c 2
 1018.5 142 l 1
 1000.5 15.5 l 1
 933.5 -9.5 889 -23 809 -23 c 0
 704.5 -23 649 34 633.5 115.5 c 2
 631 125.5 l 1
 620 128.5 l 1
 565 52.5 489.5 -20 351.5 -20 c 0
 154.5 -20 27 143.5 27 383 c 0
283.5 464.5 m 0
 283.5 292.5 353 179 464 179 c 0
 521.5 179 584.5 210.5 624.5 244 c 1
 624.5 638 l 1
 571.5 713.5 502 751 449.5 751 c 0
 333 751 283.5 613 283.5 464.5 c 0
553 921 m 1
 570 1061.5 l 1
 986.5 1061.5 l 1
 970.5 921 l 1
 553 921 l 1
EndSplineSet
EndChar

StartChar: degree
Encoding: -1 176 171
Width: 373
VWidth: 0
Flags: HW
LayerCount: 2
Fore
SplineSet
26 1111.5 m 0
 26 1204.5 100.5 1285 192.5 1285 c 0
 287.5 1285 349.5 1215 349.5 1123 c 0
 349.5 1034 280.5 947.5 178.5 947.5 c 0
 85.5 947.5 26 1009.5 26 1111.5 c 0
107.5 1130.5 m 0
 107.5 1069.5 135.5 994 190.5 994 c 0
 236.5 994 266.5 1027.5 266.5 1100.5 c 0
 266.5 1162 236 1237 183.5 1237 c 0
 132 1237 107.5 1185.5 107.5 1130.5 c 0
EndSplineSet
EndChar

StartChar: divide
Encoding: -1 247 174
Width: 877
VWidth: 0
Flags: HW
LayerCount: 2
Fore
SplineSet
27.5 432.5 m 1
 39.5 578.5 l 1
 851 578.5 l 1
 841 432.5 l 1
 27.5 432.5 l 1
266 223 m 0
 266 287.5 316.5 356 430 356 c 0
 549.5 356 599.5 288 599.5 224 c 0
 599.5 148 546.5 84.5 429.5 84.5 c 0
 309.5 84.5 266 153 266 223 c 0
266 785.5 m 0
 266 850 316.5 918.5 430 918.5 c 0
 549.5 918.5 599.5 850.5 599.5 786.5 c 0
 599.5 710.5 546.5 647 429.5 647 c 0
 309.5 647 266 715.5 266 785.5 c 0
EndSplineSet
EndChar

StartChar: dollar
Encoding: -1 36 175
Width: 899
VWidth: 0
Flags: HW
LayerCount: 2
Fore
SplineSet
33 129 m 1
 56.5 428.5 l 1
 196 407 l 1
 246.5 199.5 l 1
 283.549 146.659 355.076 107.287 433.333 107.287 c 0
 529.095 107.287 636 162.176 636 287.5 c 0
 636 496.5 58 525.5 58 889 c 0
 58 1144 270.5 1267.5 503.5 1267.5 c 0
 611 1267.5 715.5 1235 806.5 1178 c 1
 806.5 1162 781.5 861 781.5 861 c 1
 645.5 882 l 1
 613.5 1079 l 1
 590.5 1108.5 508 1145 448 1145 c 0
 371 1145 306 1102 306 1001 c 0
 306 744.5 893 746 893 375.5 c 0
 893 104 614.5 -23.5 407 -23.5 c 0
 263 -23.5 97 49 33 129 c 1
313 -181 m 1
 337 9 l 1
 397 76 l 1
 417 618.5 l 1
 430.5 695 l 1
 451 1206.5 l 1
 403 1240.5 l 1
 389.5 1392 l 1
 616 1417 l 1
 585.5 1240.5 l 1
 524.5 1202.5 l 1
 504 673.5 l 1
 495 597 l 1
 474 66 l 1
 534.5 30 l 1
 542.5 -161 l 1
 313 -181 l 1
EndSplineSet
EndChar

StartChar: dollar.osf
Encoding: -1 -1 176
Width: 819
VWidth: 0
Flags: HW
LayerCount: 2
Fore
SplineSet
25 154 m 0
 25 236 85.5 291.5 187 299.5 c 1
 227.5 162 296.5 94 373 94 c 0
 447 94 493.5 114 493.5 175.5 c 0
 493.5 312 54 345 54 629 c 0
 54 743 148 924 401.5 924 c 0
 567 924 690.5 865 690.5 753.5 c 0
 690.5 667.5 617.5 608 525 600 c 1
 505 664.5 l 2
 474.5 781.5 408.5 807.5 354.5 807.5 c 0
 292.5 807.5 256 765 256 714 c 0
 256 560.5 713.5 531.5 713.5 246 c 0
 713.5 71.5 544 -35 344 -35 c 0
 172.5 -35 25 46.5 25 154 c 0
304.5 -196.5 m 1
 325.5 -15 l 1
 447.5 -6 l 1
 467.5 -178.5 l 1
 304.5 -196.5 l 1
309 1054.5 m 1
 470 1071.5 l 1
 447.5 898 l 1
 331.5 898 l 1
 309 1054.5 l 1
EndSplineSet
EndChar

StartChar: dotaccent
Encoding: -1 729 177
Width: 426
VWidth: 0
Flags: HW
LayerCount: 2
Fore
SplineSet
46 1476 m 0
 46 1540.5 97.5 1609.5 210 1609.5 c 0
 329.5 1609.5 380.5 1541 380.5 1477 c 0
 380.5 1401 326.5 1337.5 209.5 1337.5 c 0
 89.5 1337.5 46 1406 46 1476 c 0
EndSplineSet
EndChar

StartChar: dotaccentcomb
Encoding: -1 775 178
Width: 240
VWidth: 0
Flags: HW
LayerCount: 2
Fore
SplineSet
45 1461 m 0
 45 1522.5 92.5 1591 203 1591 c 0
 319 1591 365.5 1524 365.5 1462.5 c 0
 365.5 1389.5 317 1331 202.5 1331 c 0
 86 1331 45 1395 45 1461 c 0
EndSplineSet
EndChar

StartChar: dotbelowcomb
Encoding: -1 803 179
Width: 221
VWidth: 0
Flags: HW
LayerCount: 2
Fore
SplineSet
0 -263.5 m 0
 0 -208.5 44 -149.5 146.5 -149.5 c 0
 254 -149.5 300 -207.5 300 -262.5 c 0
 300 -327 252.5 -379 146.5 -379 c 0
 38.5 -379 0 -322 0 -263.5 c 0
EndSplineSet
EndChar

StartChar: dotlessi
Encoding: -1 305 180
Width: 588
VWidth: 0
Flags: W
HStem: 0 127.5<28.5 74.8734 534.042 572>
VStem: 181 241<173 651>
LayerCount: 2
Fore
SplineSet
18.5 0 m 1
 28.5 127.5 l 1
 181 173 l 1
 181 651 l 1
 31.5 731 l 1
 54.5 858 l 1
 381.5 882.5 l 1
 422 839.5 l 1
 422 173 l 1
 583 127 l 1
 572 0 l 1
 18.5 0 l 1
EndSplineSet
EndChar

StartChar: e
Encoding: -1 101 181
Width: 823
VWidth: 0
Flags: HW
LayerCount: 2
Fore
SplineSet
26.5 429 m 0
 26.5 730.5 258 924.5 477.5 924.5 c 0
 660 924.5 779 792 779 580.5 c 0
 779 549.5 767.5 458.5 760.5 426 c 1
 279.5 416 l 1
 287.5 271.5 378 150.5 544 150.5 c 0
 618.273 150.5 694.572 157.729 781.5 206 c 1
 801.5 113 l 1
 716 10.5 559.5 -30.5 428.5 -30.5 c 0
 209 -30.5 26.5 124 26.5 429 c 0
276 514.5 m 1
 521 537.5 l 1
 525.5 553 527 595 527 610 c 0
 527 702.5 495.5 772 416.5 772 c 0
 341.5 772 280 676.5 276 514.5 c 1
EndSplineSet
EndChar

StartChar: eight
Encoding: -1 56 188
Width: 908
VWidth: 0
Flags: HW
LayerCount: 2
Fore
SplineSet
27 275 m 0
 27 392 93 488.5 250.5 566.5 c 1
 250.5 578.5 l 1
 148.5 653.5 72.5 743 72.5 871 c 0
 72.5 1039.5 222.5 1200 478 1200 c 0
 692.5 1200 829 1070.5 829 925.5 c 0
 829 821.5 747.5 708.5 631 660 c 1
 630 647 l 1
 795 533.5 873.5 448.5 873.5 315.5 c 0
 873.5 128 702 -27 416.5 -27 c 0
 172 -27 27 104.5 27 275 c 0
292.5 325.5 m 0
 292.5 183 373 88 489.5 88 c 0
 565.5 88 622 136 622 214.5 c 0
 622 310.5 491 392 355 493.5 c 1
 311 446 292.5 415.5 292.5 325.5 c 0
333 970.5 m 0
 333 894 403.5 794.5 523.5 723.5 c 1
 577.5 756.5 595 800.5 595 882 c 0
 595 1015 524.5 1093.5 444.5 1093.5 c 0
 370 1093.5 333 1036 333 970.5 c 0
EndSplineSet
EndChar

StartChar: eight.osf
Encoding: -1 -1 189
Width: 881
VWidth: 0
Flags: HW
LayerCount: 2
Fore
SplineSet
27.5 275 m 0
 27.5 392 98 497 247.5 573.5 c 1
 247.5 585.5 l 1
 156.5 650.5 77.5 753.5 77.5 875 c 0
 77.5 1043.5 220 1200 466 1200 c 0
 671.5 1200 799 1079 799 934 c 0
 799 830 737.5 734.5 619.5 663 c 1
 620 650.5 l 1
 784.5 545 855.5 439 855.5 319.5 c 0
 855.5 132 671 -27 403.5 -27 c 0
 159 -27 27.5 104.5 27.5 275 c 0
286 325.5 m 0
 286 204.5 352.5 90.5 467 90.5 c 0
 552 90.5 610 144.5 610 229.5 c 0
 610 323 497 395 348 504.5 c 1
 310.5 466.5 286 399 286 325.5 c 0
329.5 981.5 m 0
 329.5 897 395 792 513 722.5 c 1
 550 756 575.5 804 575.5 890 c 0
 575.5 1006.5 511.5 1093.5 431.5 1093.5 c 0
 374.5 1093.5 329.5 1047 329.5 981.5 c 0
EndSplineSet
EndChar

StartChar: emdash
Encoding: -1 8212 192
Width: 1348
VWidth: 0
Flags: HW
LayerCount: 2
Fore
SplineSet
43.5 388 m 1
 61.5 533.5 l 1
 1307 541 l 1
 1286 393.5 l 1
 43.5 388 l 1
EndSplineSet
EndChar

StartChar: emptyset
Encoding: -1 8709 193
Width: 1040
VWidth: 0
Flags: HW
LayerCount: 2
Fore
SplineSet
19 123.5 m 1
 145 208.5 l 1
 214 216 l 1
 836 773 l 1
 808.5 809.5 l 1
 908 923.5 l 1
 1027.5 757 l 1
 913 673.5 l 1
 877.5 692 l 1
 243 123.5 l 1
 241 73.5 l 1
 139 -43.5 l 1
 19 123.5 l 1
67 443.5 m 0
 67 696.5 291.5 927.5 524.5 927.5 c 0
 803.5 927.5 977.5 712.5 977.5 442.5 c 0
 977.5 186 802 -37 525.5 -37 c 0
 271.5 -37 67 152 67 443.5 c 0
264.5 442.5 m 0
 264.5 215.5 396 126 524.5 126 c 0
 671.5 126 779.5 209.5 779.5 443.5 c 0
 779.5 670 656.5 760.5 523 760.5 c 0
 376 760.5 264.5 655 264.5 442.5 c 0
EndSplineSet
EndChar

StartChar: endash
Encoding: -1 8211 194
Width: 776
VWidth: 0
Flags: HW
LayerCount: 2
Fore
SplineSet
43.5 388 m 1
 62.5 533.5 l 1
 735.5 541 l 1
 713 393.5 l 1
 43.5 388 l 1
EndSplineSet
EndChar

StartChar: eng
Encoding: -1 331 195
Width: 1049
VWidth: 0
Flags: HW
LayerCount: 2
Fore
SplineSet
18.5 0 m 1
 32 115 l 1
 178.5 171.5 l 1
 178.5 680.5 l 1
 30.5 747 l 1
 49 869 l 1
 399.5 903 l 1
 427 874 l 1
 407 759 l 1
 419.5 756 l 1
 499 844 595.5 914 714.5 914 c 0
 866 914 958 821.5 958 628.5 c 2
 958 153 l 1
 957 -150.5 758 -292.5 589.5 -365 c 2
 546.5 -382.5 l 1
 480.5 -254 l 1
 588 -175 721 -57 721 213 c 2
 719 503 l 2
 718 632 665 681.5 584.5 681.5 c 0
 525 681.5 467 659.5 421.5 613.5 c 1
 421.5 171.5 l 1
 557.5 122.5 l 1
 536.5 0 l 1
 18.5 0 l 1
EndSplineSet
EndChar

StartChar: equal
Encoding: -1 61 197
Width: 722
VWidth: 0
Flags: HW
LayerCount: 2
Fore
SplineSet
46 438 m 1
 56.5 584.5 l 1
 676.5 584.5 l 1
 664.5 438 l 1
 46 438 l 1
49 417.5 m 1
 59.5 563.5 l 1
 680 563.5 l 1
 667.5 417.5 l 1
 49 417.5 l 1
EndSplineSet
EndChar

StartChar: eth
Encoding: -1 240 198
Width: 927
VWidth: 0
Flags: HW
LayerCount: 2
Fore
SplineSet
26.5 451 m 0
 26.5 715.073 232.969 946.795 430.78 946.795 c 0
 474.613 946.795 540.199 930.388 573 872 c 1
 578 876 l 1
 563 925 527 998.5 494.5 1058.5 c 1
 286 1018.5 l 1
 295 1119 l 1
 448.5 1151 l 1
 410.5 1212 368 1266.5 328.5 1302 c 1
 515 1302 l 1
 547.5 1280 591 1243.5 635.5 1195 c 1
 793 1228.5 l 1
 782 1119 l 1
 707 1104 l 1
 814 950.5 892 740 892 498 c 0
 892 194 730 -27 459.5 -27 c 0
 148 -27 26.5 207.5 26.5 451 c 0
282.5 497.5 m 1
 289 268 378 111.5 491 111.5 c 0
 618.5 111.5 642.5 228.5 642.5 438.5 c 0
 642.5 644.06 534.769 815.595 436.979 817.095 c 1
 334.53 817.095 282.5 706.719 282.5 497.5 c 1
EndSplineSet
EndChar

StartChar: exclam
Encoding: -1 33 199
Width: 419
VWidth: 0
Flags: HW
LayerCount: 2
Back
SplineSet
46.5 593 m 1
 46.5 626.5 85 727 118 727 c 1
 151.5 727 544 700.5 544 667 c 1
 544 632 508.5 524 473.5 524 c 1
 438.5 524 419 490.5 384 490.5 c 1
 349 490.5 419 93.5 384 93.5 c 1
 349 93.5 509 62 474 62 c 1
 439 62 502.5 -18 467.5 -18 c 1
 432.5 -18 144 -18 109 -18 c 1
 74 -18 149 53 114 53 c 1
 79 53 237 92.5 202 92.5 c 1
 167 92.5 237 492 202 492 c 1
 167 492 46.5 558 46.5 593 c 1
EndSplineSet
Fore
SplineSet
41.5 109.5 m 0
 41.5 175.5 93 245 207.5 245 c 0
 327.5 245 379 175.5 379 110 c 0
 379 32.5 326 -31 207 -31 c 0
 85 -31 41.5 38 41.5 109.5 c 0
64 1219.5 m 0
 64 1271 133.5 1299 232.5 1299 c 0
 298 1299 341.5 1285.5 341.5 1234 c 0
 341.5 1031.01 304 636 274.5 359.5 c 1
 147.5 383.5 l 1
 117.5 648.5 64 1083 64 1219.5 c 0
EndSplineSet
EndChar

StartChar: f
Encoding: -1 102 201
Width: 794
VWidth: 0
Flags: HW
LayerCount: 2
Fore
SplineSet
17.5 0 m 1
 29.5 115.5 l 1
 183 173 l 1
 183 742 l 1
 33.5 742 l 1
 44.5 853 l 1
 182.5 876 l 1
 207 1149 398.5 1295 593.5 1295 c 0
 699.5 1295 828.5 1274 828.5 1162 c 0
 828.5 1092.5 748.5 1031 690.5 1021 c 1
 651 1084.5 597.5 1166 532 1166 c 0
 465.5 1166 417.5 1130.5 415.5 968 c 1
 414.5 869.5 l 1
 674.5 869.5 l 1
 661.5 742 l 1
 414.5 742 l 1
 414.5 180.5 l 1
 659.5 127.5 l 1
 652 0 l 1
 17.5 0 l 1
EndSplineSet
EndChar

StartChar: f.alt2
Encoding: -1 -1 202
Width: 725
VWidth: 0
Flags: HW
LayerCount: 2
Fore
SplineSet
17.5 0 m 1
 29.5 115.5 l 1
 183 173 l 1
 183 742 l 1
 33.5 742 l 1
 44.5 853 l 1
 182.5 876 l 1
 207 1149 364 1294 534.5 1294 c 0
 631.5 1294 721.5 1267.5 721.5 1174.5 c 0
 721.5 1109.5 652.5 1054 596 1042.5 c 1
 570.5 1104.5 535.5 1159.5 484 1159.5 c 0
 430 1159.5 417.5 1130.5 415.5 968 c 1
 414.5 869.5 l 1
 674.5 869.5 l 1
 661.5 742 l 1
 414.5 742 l 1
 414.5 180.5 l 1
 659.5 127.5 l 1
 652 0 l 1
 17.5 0 l 1
EndSplineSet
EndChar

StartChar: five
Encoding: -1 53 203
Width: 862
VWidth: 0
Flags: HW
LayerCount: 2
Fore
SplineSet
-9.5 40.5 m 1
 42 407.5 l 1
 159.5 380 l 1
 191 136 l 1
 219.88 99.6725 266.316 83.9515 320.187 83.9515 c 0
 421.55 83.9515 508.5 151.997 508.5 269 c 0
 508.5 431.5 364.5 550.5 75 560.5 c 1
 196 1167.5 l 1
 705 1198 l 1
 670.5 952 l 1
 278 937.5 l 1
 254 766 l 1
 628 754 759.265 571 759 367.5 c 0
 758.63 130.585 504.07 -38.453 249.237 -38.453 c 0
 148.599 -38.453 58.1346 -17.906 -9.5 40.5 c 1
EndSplineSet
EndChar

StartChar: five.osf
Encoding: -1 -1 204
Width: 769
VWidth: 0
Flags: HW
LayerCount: 2
Fore
SplineSet
-48 -117.992 m 0
 -48 -23.5 24.5 31.5 123.5 49.5 c 1
 146.845 -29.5 202.154 -188.397 322.029 -188.397 c 0
 442.79 -188.397 517.724 -87.7232 517.724 62.3916 c 0
 517.724 241.924 374.936 371.374 111.155 401.5 c 1
 240.654 957 l 1
 718.655 995.5 l 1
 685.655 785.5 l 1
 303.154 772.5 l 1
 280.654 611.5 l 1
 590.155 565.5 750.902 384.221 750.902 156.725 c 0
 750.902 -66.937 564.979 -302.5 256.154 -302.5 c 0
 63.1545 -302.5 -48 -208 -48 -117.992 c 0
EndSplineSet
EndChar

StartChar: four
Encoding: -1 52 205
Width: 1029
VWidth: 0
Flags: HW
LayerCount: 2
Fore
SplineSet
-10.5 447.5 m 1
 683.5 1218.5 l 1
 779 1193 l 1
 773 1073.5 768 863.5 768 682.5 c 2
 768 496.5 l 1
 1023 496.5 l 1
 1007 331 l 1
 768 331 l 1
 768 147 l 1
 983.5 102.5 l 1
 974.5 -1 l 1
 267 -1 l 1
 272.5 89.5 l 1
 514 149.5 l 1
 514 334 l 1
 13.5 334 l 1
 -10.5 447.5 l 1
239.5 496.5 m 1
 512 496.5 l 1
 512 864.5 l 1
 239.5 496.5 l 1
EndSplineSet
EndChar

StartChar: four.osf
Encoding: -1 -1 206
Width: 1018
VWidth: 0
Flags: HW
LayerCount: 2
Fore
SplineSet
-4.5 172.5 m 1
 658 1004 l 1
 768.5 978 l 1
 762.5 858.5 759 570 759 389 c 2
 759 223 l 1
 1012 223 l 1
 993.5 47 l 1
 762.5 47 l 1
 762.5 -263.5 l 1
 503.5 -310.5 l 1
 503.5 51 l 1
 26.5 51 l 1
 -4.5 172.5 l 1
236 223 m 1
 505 223 l 1
 505 601.5 l 1
 236 223 l 1
EndSplineSet
EndChar

StartChar: fraction
Encoding: -1 8260 207
Width: 1569
VWidth: 0
Flags: HW
LayerCount: 2
Fore
SplineSet
61.5 22.5 m 1
 543.5 598 l 1
 1010.5 1218.5 l 1
 1244.5 1216 l 1
 1243.5 1164 l 1
 772.5 601 l 1
 340.5 -15.5 l 1
 61.5 22.5 l 1
EndSplineSet
EndChar

StartChar: g
Encoding: -1 103 208
Width: 953
VWidth: 0
Flags: HW
LayerCount: 2
Fore
SplineSet
12 -155.5 m 0
 12 -83.5 94.5 -14 171 11.5 c 1
 171 24.5 l 1
 109 54 76 99.5 76 169 c 0
 76 239 176.5 317 257 341.5 c 1
 255.5 354 l 1
 197 374 92.5 480.5 92.5 606 c 0
 92.5 768.5 246.5 920 449 920 c 0
 577.5 920 648 886.5 693.5 857 c 1
 726 860.5 919 881 919 881 c 1
 944 852.5 l 1
 902 700.5 l 1
 877 698.5 l 1
 770.5 732.5 l 1
 768 721.5 l 1
 775.5 699 786.5 660 786.5 627 c 0
 786.5 430.5 608 317 434.5 317 c 0
 403.5 317 371.5 323 355.5 326 c 1
 336.352 306.16 317.909 280.431 317.909 256.521 c 0
 317.909 222.942 344.298 195.5 457.5 195.5 c 2
 594 195.5 l 2
 781 195.5 902.5 146 902.5 -27 c 0
 902.5 -204 684 -385.5 386 -385.5 c 0
 226 -385.5 12 -339.5 12 -155.5 c 0
239.148 -93.6882 m 0
 239.148 -199.534 322.953 -243 454.5 -243 c 0
 575.5 -243 662.5 -204.5 662.5 -101.5 c 0
 662.5 -22 606.5 3.00001 459 3 c 2
 273.5 3 l 1
 268.046 -11.9082 239.148 -35.2588 239.148 -93.6882 c 0
311.5 626.5 m 0
 311.5 468.5 419 422 440 422 c 0
 529.5 422 566 468 566 609 c 0
 566 670.5 530 818.5 426 818.5 c 0
 355.5 818.5 311.5 758 311.5 626.5 c 0
EndSplineSet
EndChar

StartChar: germandbls
Encoding: -1 223 212
Width: 1205
VWidth: 0
Flags: HW
LayerCount: 2
Fore
SplineSet
17 0 m 1
 29 115.5 l 1
 182.5 173 l 1
 182.5 742 l 1
 35 742 l 1
 44.5 849 l 1
 182.5 872.5 l 1
 198 1112 403 1295.5 662 1295.5 c 0
 878 1295.5 1007 1215 1007 1054.5 c 0
 1007 857 735 829.5 735 714 c 0
 735 565.5 1195 553 1195 247.5 c 0
 1195 73 1026 -33.5 826 -33.5 c 0
 654.5 -33.5 506.5 47 506.5 154.5 c 0
 506.5 246 571.5 294.5 668 301.5 c 1
 702.5 169 778.5 95 855 95 c 0
 929 95 975 110.5 975 176.5 c 0
 975 304 536 345.5 536 629.5 c 0
 536 851 759.5 901.5 759.5 1014.5 c 0
 759.5 1101 704.5 1166 593 1166 c 0
 513.5 1166 414 1115 414 932 c 2
 414.5 0 l 1
 17 0 l 1
EndSplineSet
EndChar

StartChar: grave
Encoding: -1 96 213
Width: 451
VWidth: 0
Flags: HW
LayerCount: 2
Fore
SplineSet
61 1657.5 m 1
 227.5 1696.5 l 1
 368.5 1356 l 1
 261 1323 l 1
 61 1657.5 l 1
EndSplineSet
EndChar

StartChar: greater
Encoding: -1 62 214
Width: 706
VWidth: 0
Flags: HW
LayerCount: 2
Fore
SplineSet
29.5 11.5 m 1
 354.5 454 l 1
 45.5 870 l 1
 147 973.5 l 1
 687 454.5 l 1
 687 429 l 1
 134 -83.5 l 1
 29.5 11.5 l 1
EndSplineSet
EndChar

StartChar: guilsinglleft
Encoding: -1 8249 218
Width: 376
VWidth: 0
Flags: HW
LayerCount: 2
Fore
SplineSet
13 469 m 1
 281 819 l 1
 339.5 736.5 l 1
 200 460.5 l 1
 347.5 166.5 l 1
 274.5 76 l 1
 12 448 l 1
 13 469 l 1
EndSplineSet
EndChar

StartChar: h
Encoding: -1 104 220
Width: 1097
VWidth: 0
Flags: HW
LayerCount: 2
Fore
SplineSet
12.5 -1 m 1
 26.5 117 l 1
 174.5 171.5 l 1
 174.5 1049.5 l 1
 7.5 1127 l 1
 26 1247 l 1
 365.5 1271.5 l 1
 408 1232 l 1
 408 874 l 1
 390 754.5 l 1
 402.5 751.5 l 1
 490 845.5 587.5 913.5 700 913.5 c 0
 842 913.5 944.5 844.5 944.5 619 c 2
 944.5 170.5 l 1
 1091 121 l 1
 1073.5 -1 l 1
 631 -1 l 1
 637 114.5 l 1
 704.5 170.5 l 1
 706 503.5 l 2
 706 638.5 643 682 572.5 682 c 0
 521 682 472 667 416.5 612.5 c 1
 416.5 171.5 l 1
 546 122 l 1
 526 -1 l 1
 12.5 -1 l 1
EndSplineSet
EndChar

StartChar: hbar
Encoding: -1 295 221
Width: 1102
VWidth: 0
Flags: HW
LayerCount: 2
Fore
SplineSet
124 975 m 1
 127.5 1091 l 1
 733.5 1091 l 1
 727 975 l 1
 124 975 l 1
EndSplineSet
Refer: 220 104 N 1 0 0 1 -11.5 0 2
EndChar

StartChar: hungarumlaut
Encoding: -1 733 222
Width: 682
VWidth: 0
Flags: HW
LayerCount: 2
Fore
SplineSet
46 1402 m 1
 313 1633 l 1
 452.5 1578 l 1
 130 1357 l 1
 46 1402 l 1
291 1402 m 1
 543 1628 l 1
 684 1572.5 l 1
 372.5 1357 l 1
 291 1402 l 1
EndSplineSet
EndChar

StartChar: hyphen
Encoding: -1 45 223
Width: 588
VWidth: 0
Flags: HW
LayerCount: 2
Fore
SplineSet
40.5 377.5 m 1
 53.5 516.5 l 1
 547.5 537 l 1
 534.5 393.5 l 1
 40.5 377.5 l 1
EndSplineSet
EndChar

StartChar: i
Encoding: -1 105 224
Width: 588
VWidth: 0
Flags: HW
LayerCount: 2
Fore
SplineSet
18.5 0 m 1
 28.5 127.5 l 1
 181 173 l 1
 181 675 l 1
 31.5 757 l 1
 54.5 881.5 l 1
 381.5 906.5 l 1
 422 866 l 1
 422 173 l 1
 583 127 l 1
 572 0 l 1
 18.5 0 l 1
113 1166 m 0
 113 1240 181 1298 288.5 1298 c 0
 401 1298 467.5 1237.5 467.5 1164.5 c 0
 467.5 1089.5 405.5 1024 287.5 1024 c 0
 167 1024 113 1090.5 113 1166 c 0
EndSplineSet
EndChar

StartChar: infinity
Encoding: -1 8734 231
Width: 1299
VWidth: 0
Flags: HW
LayerCount: 2
Fore
SplineSet
31 514.5 m 0
 31 765.5 188 928.5 371 928.5 c 0
 489 928.5 581.5 898 686 733.5 c 1
 699 734.5 l 1
 761 860 879 926 987.5 926 c 0
 1138 926 1264 789.5 1264 576 c 0
 1264 323.5 1103.5 172.5 927 172.5 c 0
 800.5 172.5 702 258.5 632.5 357.5 c 1
 620.5 357.5 l 1
 550.5 225.5 441.5 174 327 174 c 0
 159.5 174 31 299.5 31 514.5 c 0
148 576.5 m 0
 148 493 229 417.5 360 417.5 c 0
 434 417.5 508.5 445 546.5 482.5 c 1
 441 618 365 707 282 707 c 0
 197.5 707 148 661.5 148 576.5 c 0
765 626.5 m 1
 838 502 947.5 428.5 1036 428.5 c 0
 1106 428.5 1154.5 481 1154.5 541.5 c 0
 1154.5 625.5 1062.5 696.5 942 696.5 c 0
 851 696.5 800 665.5 765 626.5 c 1
EndSplineSet
EndChar

StartChar: integral
Encoding: -1 8747 232
Width: 1012
VWidth: 0
Flags: HW
LayerCount: 2
Fore
SplineSet
-27.5 -228.5 m 1
 -27 -159 42 -85 115.5 -77 c 1
 152 -148 213 -252.5 278.5 -252.5 c 0
 351 -252.5 394 -214 396 -6.5 c 1
 398 814.5 l 2
 399 1132.5 613 1295 808 1295 c 0
 914 1295 1043 1274 1043 1162 c 0
 1043 1092.5 962.5 1031 904.5 1021 c 1
 865 1084.5 812 1166 746.5 1166 c 0
 680 1166 633 1130.5 630 968 c 1
 629 86 l 2
 628.5 -235.5 412.5 -386.5 217.5 -386.5 c 0
 73 -386.5 -27.5 -340.5 -27.5 -228.5 c 1
EndSplineSet
EndChar

StartChar: j
Encoding: -1 106 234
Width: 547
VWidth: 0
Flags: HW
LayerCount: 2
Fore
SplineSet
-17 -254 m 1
 90.5 -175 221.5 -75 221.5 195 c 2
 221.5 668.5 l 1
 73.5 752 l 1
 99.5 883 l 1
 422 905 l 1
 464 866 l 1
 464 150.5 l 2
 464 -161.5 266 -289 96.5 -365 c 2
 48 -382.5 l 1
 -17 -254 l 1
148 1161 m 0
 148 1239.5 216.5 1302 327.5 1302 c 0
 441 1302 508 1237 508 1160 c 0
 508 1082 446 1012 326 1012 c 0
 203.5 1012 148 1082.5 148 1161 c 0
EndSplineSet
EndChar

StartChar: k
Encoding: -1 107 235
Width: 1064
VWidth: 0
Flags: HW
LayerCount: 2
Fore
SplineSet
5 0 m 1
 18.5 127.5 l 1
 170.5 173 l 1
 170.5 1041.5 l 1
 8 1119 l 1
 31 1243 l 1
 369 1268.5 l 1
 411.5 1226.5 l 1
 411.5 173 l 1
 546.5 127 l 1
 528 0 l 1
 5 0 l 1
434.5 417 m 1
 439.5 449.5 l 1
 661.5 768.5 l 1
 527.5 817 l 1
 543.5 934 l 1
 1024.5 934 l 1
 1003 821.5 l 1
 855 769 l 1
 653.5 495 l 1
 699.5 434.5 l 2
 835 245.5 906 152.5 1023.5 109 c 2
 1064 92.5 l 1
 1045 0 l 1
 1031 -2.5 964.5 -18.5 889 -18.5 c 0
 745.932 -18.5 658 82.5 523 283.445 c 1
 434.5 417 l 1
EndSplineSet
EndChar

StartChar: l
Encoding: -1 108 237
Width: 574
VWidth: 0
Flags: W
HStem: 0 127.5<18 64.3734 521.106 556.5> 1252 20G<81.5638 390.747>
VStem: 170.5 241<173 1046>
LayerCount: 2
Fore
SplineSet
5 0 m 1
 18 127.5 l 1
 170.5 173 l 1
 170.5 1046 l 1
 8 1124 l 1
 31 1248.5 l 1
 370.5 1272 l 1
 411.5 1231.5 l 1
 411.5 173 l 1
 569 127 l 1
 556.5 0 l 1
 5 0 l 1
EndSplineSet
EndChar

StartChar: logicalnot
Encoding: -1 172 243
Width: 857
VWidth: 0
Flags: HW
LayerCount: 2
Fore
SplineSet
37 509 m 1
 49 662 l 1
 822.5 662 l 1
 823.5 306 l 1
 661 286.5 l 1
 661 509 l 1
 37 509 l 1
EndSplineSet
EndChar

StartChar: lozenge
Encoding: -1 9674 244
Width: 865
VWidth: 0
Flags: HW
LayerCount: 2
Fore
SplineSet
74 475 m 1
 428 808.5 l 1
 792 477 l 1
 430 139 l 1
 74 475 l 1
EndSplineSet
EndChar

StartChar: lslash
Encoding: -1 322 245
Width: 594
VWidth: 0
Flags: HW
LayerCount: 2
Fore
SplineSet
-4 0 m 1
 8.5 127.5 l 1
 158.5 173 l 1
 158.5 1041.5 l 1
 0.5 1119.5 l 1
 22 1244 l 1
 361.5 1267.5 l 1
 401 1227 l 1
 401 173 l 1
 559 127 l 1
 547 0 l 1
 -4 0 l 1
9.5 451.5 m 1
 35 627 l 1
 539 957.5 l 1
 514.5 781.5 l 1
 9.5 451.5 l 1
EndSplineSet
EndChar

StartChar: m
Encoding: -1 109 246
Width: 1640
VWidth: 0
Flags: HW
LayerCount: 2
Fore
SplineSet
21.5 0 m 1
 35 115.5 l 1
 181 171.5 l 1
 181 679.5 l 1
 30 745.5 l 1
 48.5 867 l 1
 402 902.5 l 1
 430 872.5 l 1
 409.5 758.5 l 1
 421.5 755.5 l 1
 499.5 843 597 912.5 716 912.5 c 0
 818 912.5 907 868 938.5 746 c 1
 951.5 743.5 l 1
 1028.74 831.056 1130.41 908.5 1248 908.5 c 0
 1404.5 908.5 1489 816 1489 625 c 2
 1489 172.5 l 1
 1632 122.5 l 1
 1614 0.5 l 1
 1183.5 0.5 l 1
 1187 115.5 l 1
 1249.5 171.5 l 1
 1249.5 507 l 2
 1249.5 619 1203 681 1118 681 c 0
 1050.5 681 1001 650 957.5 607.5 c 1
 957.5 171.5 l 1
 1097 122 l 1
 1080.5 0 l 1
 649.5 0 l 1
 655 115.5 l 1
 720.5 171.5 l 1
 720.5 507 l 2
 720.5 623.5 666.5 681 587.5 681 c 0
 527.5 681 470 659 424.5 612.5 c 1
 424.5 171.5 l 1
 557.5 122.5 l 1
 538 0 l 1
 21.5 0 l 1
EndSplineSet
EndChar

StartChar: macron
Encoding: -1 175 247
Width: 555
VWidth: 0
Flags: HW
LayerCount: 2
Fore
SplineSet
46 1379 m 1
 63 1526.5 l 1
 510.5 1526.5 l 1
 493 1379 l 1
 46 1379 l 1
EndSplineSet
EndChar

StartChar: minus
Encoding: -1 8722 248
Width: 723
VWidth: 0
Flags: HW
LayerCount: 2
Fore
SplineSet
49.5 386 m 1
 66.5 531 l 1
 676 544.5 l 1
 660 398.5 l 1
 49.5 386 l 1
EndSplineSet
EndChar

StartChar: mu
Encoding: -1 956 249
Width: 1065
VWidth: 0
Flags: HW
LayerCount: 2
Fore
SplineSet
14 754 m 1
 37 885.5 l 1
 353.5 907.5 l 1
 394 868 l 1
 394 391.5 l 2
 394 252 436 200.5 512 200.5 c 0
 580 200.5 622.5 229 668 267 c 1
 668 667.5 l 1
 522.5 726.5 l 1
 544.5 876 l 1
 871 911.5 l 1
 908 872 l 1
 908 293 l 2
 908 189 944 169.5 1031.5 144.5 c 2
 1068 135 l 1
 1051.5 8.5 l 1
 983 -16.5 921.5 -29.5 852 -29.5 c 0
 747.5 -29.5 680.5 22.5 680.5 118 c 2
 680.5 128.5 l 1
 668.5 131.5 l 1
 593.5 28 494 -27.5 390 -27.5 c 0
 336.32 -27.7937 299 -15 273.5 14 c 1
 261.5 12.5 l 1
 273 -18.5 281.5 -69 286.5 -133 c 2
 306.5 -387.5 l 1
 106 -361.5 l 1
 115.5 -265.5 145 245.5 145 493.5 c 2
 145 674.5 l 1
 14 754 l 1
EndSplineSet
EndChar

StartChar: multiply
Encoding: -1 215 250
Width: 576
VWidth: 0
Flags: HW
LayerCount: 2
Fore
SplineSet
37.5 319 m 1
 193 462 l 1
 33.5 617.5 l 1
 149.5 708.5 l 1
 298 554 l 1
 465 719.5 l 1
 554.5 602.5 l 1
 393.5 457 l 1
 552 297.5 l 1
 437.5 203.5 l 1
 290 365.5 l 1
 130.5 203 l 1
 37.5 319 l 1
EndSplineSet
EndChar

StartChar: n
Encoding: -1 110 251
Width: 1110
VWidth: 0
Flags: HW
LayerCount: 2
Fore
SplineSet
18.5 0 m 1
 32 115 l 1
 178.5 171.5 l 1
 178.5 680.5 l 1
 30.5 747 l 1
 49 869 l 1
 399.5 903 l 1
 427 874 l 1
 407 759 l 1
 419.5 756 l 1
 499 844 595.5 914 714.5 914 c 0
 866 914 958 821.5 958 628.5 c 2
 958 171.5 l 1
 1104 122 l 1
 1087.5 0 l 1
 645 0 l 1
 650 115 l 1
 719 171.5 l 1
 719 503 l 2
 719 631.5 665 681.5 584.5 681.5 c 0
 525 681.5 467 659.5 421.5 613.5 c 1
 421.5 171.5 l 1
 557.5 122.5 l 1
 536.5 0 l 1
 18.5 0 l 1
EndSplineSet
EndChar

StartChar: nine
Encoding: -1 57 256
Width: 895
VWidth: 0
Flags: HW
LayerCount: 2
Fore
SplineSet
20 780 m 0
 20 1053.5 229 1214 444.5 1214 c 0
 738 1214 865.5 1022.5 865.5 772.5 c 0
 865.5 363.5 604.5 25 211.5 -26 c 1
 175.5 68.5 l 1
 433 154 538.5 314 562 521 c 1
 551.5 525.5 l 1
 495 468.5 406 444 322.5 444 c 0
 158 444 20 559.5 20 780 c 0
300 855.5 m 0
 300 706 334.5 599 434.5 599 c 0
 481 599 532 621 564.5 660.5 c 1
 571 701 573 769.5 573 817 c 0
 573 979 522.5 1098.5 432.5 1098 c 0
 330 1097.5 300 1015.5 300 855.5 c 0
EndSplineSet
EndChar

StartChar: nine.osf
Encoding: -1 -1 257
Width: 843
VWidth: 0
Flags: HW
LayerCount: 2
Fore
SplineSet
12.5 574.5 m 0
 12.5 835.5 208 999.5 423.5 999.5 c 0
 717 999.5 826 791 826 541 c 0
 826 117 528.5 -231.5 158 -302 c 1
 122 -207.5 l 1
 361.5 -108.5 496.5 88 530.5 307.5 c 1
 520.5 312 l 1
 472.5 258 390.5 231 309.5 231 c 0
 143.5 231 12.5 350 12.5 574.5 c 0
284 641.5 m 0
 284 468 322 385.5 413.5 385.5 c 0
 460 385.5 507 407 539.5 446.5 c 1
 546 487 547 554 547 601.5 c 0
 547 763.5 497 884 407 883.5 c 0
 328.5 883 284 815.5 284 641.5 c 0
EndSplineSet
EndChar

StartChar: notequal
Encoding: -1 8800 258
Width: 771
VWidth: 0
Flags: HW
LayerCount: 2
Fore
SplineSet
24.5 289.5 m 1
 36.5 435 l 1
 746.5 435 l 1
 735.5 289.5 l 1
 24.5 289.5 l 1
27.5 529 m 1
 39.5 674.5 l 1
 748.5 674.5 l 1
 737.5 529 l 1
 27.5 529 l 1
18.5 53 m 1
 244 367 l 1
 269 392.5 l 1
 421 611.5 l 1
 425.5 640.5 l 1
 584 867 l 1
 754.5 870 l 1
 596 640.5 l 1
 580 611.5 l 1
 407 381.5 l 1
 393 352.5 l 1
 189 58 l 1
 18.5 53 l 1
EndSplineSet
EndChar

StartChar: numbersign
Encoding: -1 35 260
Width: 1033
VWidth: 0
Flags: HW
LayerCount: 2
Back
SplineSet
-73.874 686.307 m 1
 30.0909 834.626 l 1
 236.611 -52.9641 l 1
 253.058 456.828 l 1
 -73.874 686.307 l 1
638.919 257.975 m 1
 1144.88 189.327 l 1
 428.908 708.81 l 1
 -82.9195 777.459 l 1
 638.919 257.975 l 1
EndSplineSet
Fore
SplineSet
187 -26 m 9
 363.5 1147.5 l 17
 528 1157.5 l 9
 352 -19 l 17
 187 -26 l 9
60.5 680.5 m 17
 105 854 l 9
 1073 854 l 17
 1031 680.5 l 9
 60.5 680.5 l 17
-11 296 m 1
 33 469.5 l 9
 998.5 469.5 l 17
 956 296 l 1
 -11 296 l 1
517 -26 m 9
 693 1147.5 l 17
 859 1156.5 l 9
 682.5 -19 l 17
 517 -26 l 9
EndSplineSet
EndChar

StartChar: o
Encoding: -1 111 261
Width: 956
VWidth: 0
Flags: HW
LayerCount: 2
Fore
SplineSet
26 445.5 m 0
 26 750.5 268 927 491 927 c 0
 765 927 920 758.5 920 465.5 c 0
 920 168 730.5 -27 468.5 -27 c 0
 152.5 -27 26 192.5 26 445.5 c 0
282 512.5 m 0
 282 289 341 119 501 119 c 0
 613.5 119 662 215 662 358 c 0
 662 548.5 621 770.5 451 770.5 c 0
 327.5 770.5 282 659.5 282 512.5 c 0
EndSplineSet
EndChar

StartChar: oe
Encoding: -1 339 266
Width: 1418
VWidth: 0
Flags: HW
LayerCount: 2
Fore
SplineSet
27 445.5 m 0
 27 750.5 257 925.5 480 925.5 c 0
 605.5 925.5 722.5 872 777.5 803.5 c 1
 847 870.5 948 924.5 1061.5 924.5 c 0
 1244 924.5 1363 792 1363 580.5 c 0
 1363 549.5 1351 458.5 1344 426 c 1
 864 421 l 1
 868 273 965 146 1128 146 c 0
 1201 146 1276.5 157.5 1364 206 c 1
 1386 113 l 1
 1300.5 10.5 1143 -30.5 1012 -30.5 c 0
 897 -30.5 807 16 737 86 c 1
 656 7.5 568 -27.5 457.5 -27.5 c 0
 141.5 -27.5 27 192.5 27 445.5 c 0
283.5 512.5 m 0
 283.5 289 346.5 122 490 122 c 0
 586 122 638.5 215 638.5 358 c 0
 638.5 548.5 601 772 440.5 772 c 0
 317 772 283.5 659.5 283.5 512.5 c 0
863 521.5 m 1
 1105 540 l 1
 1109.5 555.5 1111.5 595 1111.5 610 c 0
 1111.5 702.5 1079.5 772 1000.5 772 c 0
 925.5 772 867 683.5 863 521.5 c 1
EndSplineSet
EndChar

StartChar: ogonek
Encoding: -1 731 267
Width: 398
VWidth: 0
Flags: HW
LayerCount: 2
Fore
SplineSet
46 -207 m 0
 46 -134.5 79 -84 194 3 c 1
 288.5 3 l 1
 226 -139 232 -229 353 -317.5 c 1
 323.5 -390.5 l 1
 172 -378 46 -308.5 46 -207 c 0
EndSplineSet
EndChar

StartChar: one
Encoding: -1 49 271
Width: 819
VWidth: 0
Flags: HW
LayerCount: 2
Fore
SplineSet
20 -2.5 m 1
 32 99 l 1
 276 156 l 1
 276 973 l 1
 43 973 l 1
 52 1095 l 1
 510.5 1185.5 l 1
 569.5 1185.5 l 1
 569.5 146 l 1
 819 107.5 l 1
 807.5 -2.5 l 1
 20 -2.5 l 1
EndSplineSet
EndChar

StartChar: one.osf
Encoding: -1 -1 272
Width: 694
VWidth: 0
Flags: HW
LayerCount: 2
Fore
SplineSet
17.5 -2.5 m 1
 30.5 99 l 1
 224.5 156 l 1
 224.5 773.5 l 1
 40 775 l 1
 50.5 897 l 1
 430.5 986 l 1
 490 986 l 1
 490 146 l 1
 693 106 l 1
 681.5 -2.5 l 1
 17.5 -2.5 l 1
EndSplineSet
EndChar

StartChar: onehalf
Encoding: -1 189 273
Width: 916
VWidth: 0
Flags: HW
LayerCount: 2
Fore
SplineSet
29.5 501.5 m 1
 31 530.5 l 1
 145 549 l 1
 145 913.5 l 1
 37.5 913.5 l 1
 39.5 944.5 l 1
 202.5 976 l 1
 214 976 l 1
 214 547.5 l 1
 324.5 533.5 l 1
 322 501.5 l 1
 29.5 501.5 l 1
78 -30.5 m 1
 769 960.5 l 1
 848.5 967.5 l 1
 163.5 -20 l 1
 78 -30.5 l 1
550.5 39.5 m 1
 650 121 l 1
 714 176 787 248.5 787 327.5 c 0
 787 382.5 770 429.5 706 429.5 c 0
 651 429.5 617.5 373.5 599.5 329 c 1
 566.5 341 l 1
 581.5 409 647 485 730 485 c 0
 816.5 485 861.5 433.5 861.5 347 c 0
 861.5 235 734 150.5 669 86.5 c 1
 630 55 l 1
 822 55 l 1
 861.5 126.5 l 1
 888 120.5 l 1
 866 0 l 1
 556.5 0 l 1
 550.5 39.5 l 1
EndSplineSet
EndChar

StartChar: onequarter
Encoding: -1 188 274
Width: 917
VWidth: 0
Flags: HW
LayerCount: 2
Fore
SplineSet
29 501.5 m 1
 32.5 530.5 l 1
 147 549 l 1
 147 913.5 l 1
 38.5 913.5 l 1
 40.5 944.5 l 1
 204.5 976 l 1
 214.5 976 l 1
 214.5 547.5 l 1
 324 533.5 l 1
 321 501.5 l 1
 29 501.5 l 1
98.5 -30.5 m 1
 788.5 960.5 l 1
 871 967.5 l 1
 182.5 -20 l 1
 98.5 -30.5 l 1
518 172 m 1
 765 476.5 l 1
 790.5 470.5 l 1
 789 423 788.5 346.5 788.5 273.5 c 2
 788.5 190 l 1
 890.5 190 l 1
 884 141.5 l 1
 788.5 141.5 l 1
 788.5 6 l 1
 722 -2.5 l 1
 722 144 l 1
 526.5 144 l 1
 518 172 l 1
585 190 m 1
 721.5 190 l 1
 721.5 362.5 l 1
 585 190 l 1
EndSplineSet
EndChar

StartChar: onesuperior
Encoding: -1 185 275
Width: 211
VWidth: 0
Flags: HW
LayerCount: 2
Fore
SplineSet
29.5 1007.5 m 1
 31 1031.5 l 1
 83.5 1044 l 1
 83.5 1244 l 1
 36.5 1244 l 1
 37 1266 l 1
 123.5 1289 l 1
 131 1289 l 1
 131 1043.5 l 1
 186.5 1033.5 l 1
 182 1007.5 l 1
 29.5 1007.5 l 1
EndSplineSet
EndChar

StartChar: ordfeminine
Encoding: -1 170 276
Width: 471
VWidth: 0
Flags: HW
LayerCount: 2
Fore
SplineSet
43.5 287 m 1
 49.5 345 l 1
 388.5 345 l 1
 382.5 287 l 1
 43.5 287 l 1
63.5 479 m 0
 63.5 536 103.5 578 247.5 605 c 1
 247.5 632 l 2
 247.5 686 233.5 736 180.5 736 c 0
 143.5 736 140.5 707 134.5 658 c 1
 113.5 658 79.5 660 79.5 700 c 0
 79.5 743 157.5 777 213.5 777 c 0
 283.5 777 312.5 735 312.5 652 c 2
 312.5 507 l 2
 312.5 471 321.5 458 358.5 454 c 1
 377.5 451 l 1
 371.5 415 l 1
 352.5 412 339.5 408 316.5 408 c 0
 270.5 408 254.5 438 254.5 462 c 2
 254.5 467 l 1
 250.5 467 l 1
 237.5 439 194.5 406 141.5 406 c 0
 101.5 406 63.5 430 63.5 479 c 0
133.5 497 m 0
 133.5 464 149.5 449 177.5 449 c 0
 210.5 449 237.5 476 247.5 492 c 1
 247.5 577 l 1
 148.5 562 133.5 534 133.5 497 c 0
EndSplineSet
EndChar

StartChar: ordmasculine
Encoding: -1 186 277
Width: 432
VWidth: 0
Flags: HW
LayerCount: 2
Fore
SplineSet
46 287.5 m 1
 50.5 352.5 l 1
 389 352.5 l 1
 383 287.5 l 1
 46 287.5 l 1
55.5 582 m 0
 55.5 706 132 774.5 218.5 774.5 c 0
 317.5 774.5 371 700 371 589 c 0
 371 478 302 402 209 402 c 0
 105 402 55.5 479 55.5 582 c 0
140.5 602 m 0
 140.5 506.5 172 444.5 217.5 444.5 c 0
 259.5 444.5 286.5 489 286.5 574 c 0
 286.5 662 254.5 727.5 206 727.5 c 0
 164 727.5 140.5 687 140.5 602 c 0
EndSplineSet
EndChar

StartChar: oslash
Encoding: -1 248 278
Width: 965
VWidth: 0
Flags: HW
LayerCount: 2
Fore
SplineSet
12 -16 m 1
 172 175.5 l 1
 240 196.5 l 1
 644 721.5 l 1
 663 794.5 l 1
 771 926.5 l 1
 951 912.5 l 1
 796 720.5 l 1
 715 675 l 1
 301 140.5 l 1
 291 86 l 1
 197.5 -30.5 l 1
 12 -16 l 1
287 512.5 m 0
 287 289 346 119 506 119 c 0
 618.5 119 666.5 215 666.5 358 c 0
 666.5 548.5 625.5 770.5 455.5 770.5 c 0
 332 770.5 287 659.5 287 512.5 c 0
30 445.5 m 0
 30 750.5 273 927 496 927 c 0
 770 927 925 758.5 925 465.5 c 0
 925 168 735 -27 473 -27 c 0
 157 -27 30 192.5 30 445.5 c 0
EndSplineSet
EndChar

StartChar: p
Encoding: -1 112 281
Width: 1034
VWidth: 0
Flags: HW
LayerCount: 2
Fore
SplineSet
6.5 -371 m 1
 18.5 -253 l 1
 172.5 -199 l 1
 172.5 683.5 l 1
 19.5 747 l 1
 39 869.5 l 1
 392.5 902.5 l 1
 422 873.5 l 1
 403.5 768 l 1
 414.5 765 l 1
 463.5 835 556 919.5 687.5 919.5 c 0
 858 919.5 1007.5 794.5 1007.5 478.5 c 0
 1007.5 161.5 802.5 -19 536 -19 c 0
 505.5 -19 444 -18 411 -6 c 1
 408 168.5 l 1
 458.468 144.518 499.936 134.518 563.859 134.518 c 0
 681.791 134.518 754 231.125 754 397.5 c 0
 754 589 703 705.5 592 705.5 c 0
 528 705.5 464 672.5 409.5 628 c 1
 409.5 -200.5 l 1
 610 -251 l 1
 593 -371 l 1
 6.5 -371 l 1
EndSplineSet
EndChar

StartChar: paragraph
Encoding: -1 182 282
Width: 1447
VWidth: 0
Flags: HW
LayerCount: 2
Fore
SplineSet
22 812 m 0
 22 1065 215 1245 493.5 1245 c 2
 932 1245 l 1
 932 -1 l 1
 457 -1 l 1
 466 105 l 1
 715.5 168.5 l 1
 715.5 1110 l 1
 663 1117 605.5 1121 575.5 1121 c 0
 390.5 1121 297.5 1031 297.5 861 c 0
 297.5 716.19 386 571 596.5 573.5 c 1
 578.5 428 l 1
 257 411 22 532 22 812 c 0
1028 -1 m 1
 1028 1245 l 1
 1408.5 1245 l 1
 1394.5 1128.5 l 1
 1220.5 1076 l 1
 1220.5 164 l 1
 1406 114 l 1
 1396.5 -1 l 1
 1028 -1 l 1
EndSplineSet
EndChar

StartChar: paragraph.osf
Encoding: -1 -1 283
Width: 1349
VWidth: 0
Flags: HW
LayerCount: 2
Fore
SplineSet
74.5 670.5 m 0
 74.5 902.5 268.5 1026.5 555 1026.5 c 2
 874.5 1026.5 l 1
 874.5 0 l 1
 395 0 l 1
 404 105 l 1
 654.5 168.5 l 1
 654.5 894.5 l 1
 614.969 898.511 580.318 900.961 558.1 900.961 c 0
 440.357 900.961 335.754 866.289 335.754 710.444 c 0
 335.754 584.84 401.729 499.408 602 489 c 1
 581.5 347.5 l 1
 234.5 347.5 74.5 453 74.5 670.5 c 0
952 0 m 1
 952 1024 l 1
 1340.5 1024 l 1
 1325.5 909.5 l 1
 1159.5 855 l 1
 1159.5 163 l 1
 1339.5 113 l 1
 1328 0 l 1
 952 0 l 1
EndSplineSet
EndChar

StartChar: parenright
Encoding: -1 41 285
Width: 472
VWidth: 0
Flags: HW
LayerCount: 2
Fore
SplineSet
25 1159.5 m 1
 114.5 1255 l 1
 179.5 1200 452.5 959.5 452.5 435.5 c 0
 452.5 -79 164 -328 115 -375.5 c 1
 15 -297.5 l 1
 82 -194 209 40 209 454.5 c 0
 209 878 111.5 1047 25 1159.5 c 1
EndSplineSet
EndChar

StartChar: partialdiff
Encoding: -1 8706 286
Width: 919
VWidth: 0
Flags: HW
LayerCount: 2
Fore
SplineSet
24.5 451 m 0
 24.5 718.531 215.844 942.562 422.136 942.562 c 0
 464.558 942.562 529.402 928.851 565.5 877 c 1
 571 881 l 1
 546.5 991 449.5 1183.5 326.5 1302 c 1
 512.5 1302 l 1
 739 1150 891 843.5 890 498 c 0
 889 194 727.5 -27 457 -27 c 0
 145.5 -27 24.5 207.5 24.5 451 c 0
280.5 497.5 m 0
 283.5 263.974 376 111.5 489 111.5 c 0
 616.5 111.5 640 228.5 640 438.5 c 0
 640 645.308 533.39 817.095 432.479 817.095 c 0
 333.019 817.095 278.809 685.928 280.5 497.5 c 0
EndSplineSet
EndChar

StartChar: percent
Encoding: -1 37 287
Width: 1665
VWidth: 0
Flags: HW
LayerCount: 2
Back
SplineSet
-57.187 1009.63 m 0
 -57.187 1200.45 122.634 1362.99 284.956 1362.99 c 0
 465.978 1362.99 611.529 1207.52 611.529 1006.1 c 0
 611.529 815.281 441.742 657.277 287.482 657.277 c 0
 100.617 657.277 -57.187 795.089 -57.187 1009.63 c 0
181.239 1004.63 m 0
 181.239 872.371 210.182 761.507 287.482 761.507 c 0
 362.385 761.507 383.156 870.854 383.156 1007.66 c 0
 383.156 1142.95 351.273 1269.89 284.956 1269.89 c 0
 203.543 1269.89 181.239 1133.36 181.239 1004.63 c 0
EndSplineSet
Fore
SplineSet
14.5 897 m 0
 14.5 1049.5 177.5 1209.5 328 1209.5 c 0
 343.5 1209.5 344 1209 353.5 1207 c 1
 363.5 1114.5 l 17
 354.5 1117.5 341.5 1122 331 1122 c 0
 268.5 1122 250 1013.5 250 897 c 0
 250 780 264 672 333 672 c 0
 400 672 416 777 416 897 c 0
 416 1039.5 405.5 1138 392.5 1203 c 9
 1050.5 1208.5 l 25
 1060 1124 l 25
 554 1121 l 17
 625 1059.5 644 947 644 897 c 0
 644 723 475 581 333 580.5 c 0
 159.5 580 14.5 701 14.5 897 c 0
101.5 12.5 m 1
 583.5 588 l 1
 1050.5 1208.5 l 1
 1284.5 1206 l 1
 1283.5 1154 l 1
 812.5 591 l 1
 380.5 -25.5 l 1
 101.5 12.5 l 1
757.5 276.5 m 0
 757.5 445.5 933.5 589.5 1080 589.5 c 0
 1243 589.5 1388 452 1388 273.5 c 0
 1388 104.5 1221.5 -36 1082.5 -36 c 0
 912 -36 757.5 86.5 757.5 276.5 c 0
995 271.5 m 0
 995 154.5 1015 59.5 1082.5 59.5 c 0
 1146.5 59.5 1160 153 1160 274 c 0
 1160 394 1136.5 504 1080 504 c 0
 1009.5 504 995 385.5 995 271.5 c 0
EndSplineSet
EndChar

StartChar: percent.osf
Encoding: -1 -1 288
Width: 1480
VWidth: 0
Flags: HW
LayerCount: 2
Fore
SplineSet
-17.5 756.74 m 0
 -17.5 892.58 116.76 1027.02 239.9 1027.02 c 0
 252.84 1027.02 253.82 1026.52 261.26 1024.64 c 1
 269.56 942.28 l 17
 261.92 945.28 250.72 949.1 241.46 949.1 c 0
 188.48 949.1 173.28 860.6 173.28 756.74 c 0
 173.28 652.76 185.4 564.3 243.22 564.3 c 0
 300.22 564.3 313.4 649.94 313.4 756.74 c 0
 313.4 883.22 304.26 963.16 292.98 1021.02 c 9
 856.4 1025.58 l 25
 864.32 950.38 l 25
 424.96 948.2 l 17
 482.42 893.46 498.86 801.24 498.86 756.74 c 0
 498.86 601.8 359.18 483.76 243.22 483.32 c 0
 102.62 482.88 -17.5 582.74 -17.5 756.74 c 0
53.3999 10.8999 m 1
 459.06 492.72 l 1
 856.4 1025.58 l 1
 1055.66 1023.2 l 1
 1055.16 977.2 l 1
 654.08 495.54 l 1
 288.74 -22.3598 l 1
 53.3999 10.8999 l 1
619.34 237.94 m 0
 619.34 388.3 763.74 508.66 883.84 508.66 c 0
 1017.26 508.66 1136.1 393.94 1136.1 235.12 c 0
 1136.1 84.7598 998.78 -31.8399 885.1 -31.8399 c 0
 746.78 -31.8399 619.34 68.3399 619.34 237.94 c 0
811.64 233.54 m 0
 811.64 129.56 828.42 52.7798 885.1 52.7798 c 0
 939.82 52.7798 951.62 128.12 951.62 235.86 c 0
 951.62 342.66 932.4 432.56 883.84 432.56 c 0
 824.56 432.56 811.64 335.2 811.64 233.54 c 0
EndSplineSet
EndChar

StartChar: period
Encoding: -1 46 289
Width: 405
VWidth: 0
Flags: HW
LayerCount: 2
Fore
SplineSet
36.5 109.5 m 0
 36.5 174 86.5 242.5 200 242.5 c 0
 319.5 242.5 370 174 370 110 c 0
 370 34 316.5 -28.5 199.5 -28.5 c 0
 79.5 -28.5 36.5 39.5 36.5 109.5 c 0
EndSplineSet
EndChar

StartChar: perthousand
Encoding: -1 8240 291
Width: 2125
VWidth: 0
Flags: HW
LayerCount: 2
Fore
SplineSet
14.5 897 m 0
 14.5 1049.5 177.5 1209.5 328 1209.5 c 0
 343.5 1209.5 344 1209 353.5 1207 c 1
 363.5 1114.5 l 17
 354.5 1117.5 341.5 1122 331 1122 c 0
 268.5 1122 250 1013.5 250 897 c 0
 250 780 264 672 333 672 c 0
 400 672 416 777 416 897 c 0
 416 1039.5 405.5 1138 392.5 1203 c 9
 1050.5 1208.5 l 25
 1060 1124 l 25
 554 1121 l 17
 625 1059.5 644 947 644 897 c 0
 644 723 475 581 333 580.5 c 0
 159.5 580 14.5 701 14.5 897 c 0
101.5 12.5 m 1
 583.5 588 l 1
 1050.5 1208.5 l 1
 1284.5 1206 l 1
 1283.5 1154 l 1
 812.5 591 l 1
 380.5 -25.5 l 1
 101.5 12.5 l 1
757.5 276.5 m 0
 757.5 445.5 933.5 589.5 1080 589.5 c 0
 1243 589.5 1388 452 1388 273.5 c 0
 1388 104.5 1221.5 -36 1082.5 -36 c 0
 912 -36 757.5 86.5 757.5 276.5 c 0
995 271.5 m 0
 995 154.5 1015 59.5 1082.5 59.5 c 0
 1146.5 59.5 1160 153 1160 274 c 0
 1160 394 1136.5 504 1080 504 c 0
 1009.5 504 995 385.5 995 271.5 c 0
1460.5 275.5 m 0
 1460.5 444.5 1637 588.5 1783.5 588.5 c 0
 1946.5 588.5 2091.5 450.5 2091.5 272 c 0
 2091.5 103 1924.5 -37 1785.5 -37 c 0
 1615 -37 1460.5 85.5 1460.5 275.5 c 0
1698 270.5 m 0
 1698 153.5 1718 58.5 1785.5 58.5 c 0
 1849.5 58.5 1863 152 1863 273 c 0
 1863 393 1840 502.5 1783.5 502.5 c 0
 1713 502.5 1698 384.5 1698 270.5 c 0
EndSplineSet
EndChar

StartChar: perthousand.osf
Encoding: -1 -1 292
Width: 1787
VWidth: 0
Flags: HW
LayerCount: 2
Fore
SplineSet
-17.5 756.74 m 0
 -17.5 892.58 116.76 1027.02 239.9 1027.02 c 0
 252.84 1027.02 253.82 1026.52 261.26 1024.64 c 1
 269.56 942.28 l 17
 261.92 945.28 250.72 949.1 241.46 949.1 c 0
 188.48 949.1 173.28 860.6 173.28 756.74 c 0
 173.28 652.76 185.4 564.3 243.22 564.3 c 0
 300.22 564.3 313.4 649.94 313.4 756.74 c 0
 313.4 883.22 304.26 963.16 292.98 1021.02 c 9
 856.4 1025.58 l 25
 864.32 950.38 l 25
 424.96 948.2 l 17
 482.42 893.46 498.86 801.24 498.86 756.74 c 0
 498.86 601.8 359.18 483.76 243.22 483.32 c 0
 102.62 482.88 -17.5 582.74 -17.5 756.74 c 0
53.3999 10.8999 m 1
 459.06 492.72 l 1
 856.4 1025.58 l 1
 1055.66 1023.2 l 1
 1055.16 977.2 l 1
 654.08 495.54 l 1
 288.74 -22.3598 l 1
 53.3999 10.8999 l 1
619.34 237.94 m 0
 619.34 388.3 763.74 508.66 883.84 508.66 c 0
 1017.26 508.66 1136.1 393.94 1136.1 235.12 c 0
 1136.1 84.7598 998.78 -31.8399 885.1 -31.8399 c 0
 746.78 -31.8399 619.34 68.3399 619.34 237.94 c 0
811.64 233.54 m 0
 811.64 129.56 828.42 52.7798 885.1 52.7798 c 0
 939.82 52.7798 951.62 128.12 951.62 235.86 c 0
 951.62 342.66 932.4 432.56 883.84 432.56 c 0
 824.56 432.56 811.64 335.2 811.64 233.54 c 0
1199.5 237.94 m 0
 1199.5 388.3 1343.9 508.66 1464 508.66 c 0
 1597.92 508.66 1716.26 393.94 1716.26 235.12 c 0
 1716.26 84.7598 1579.94 -31.8399 1466.26 -31.8399 c 0
 1327.94 -31.8399 1199.5 68.3399 1199.5 237.94 c 0
1391.8 233.54 m 0
 1391.8 129.56 1409.58 52.7798 1466.26 52.7798 c 0
 1520.98 52.7798 1531.78 128.12 1531.78 235.86 c 0
 1531.78 342.66 1512.56 432.56 1464 432.56 c 0
 1404.72 432.56 1391.8 335.2 1391.8 233.54 c 0
EndSplineSet
EndChar

StartChar: plus
Encoding: -1 43 293
Width: 639
VWidth: 0
Flags: HW
LayerCount: 2
Fore
SplineSet
25 392.5 m 1
 35 525.5 l 1
 249 525.5 l 1
 249 763.5 l 1
 397.5 751.5 l 1
 398 525.5 l 1
 621 525.5 l 1
 608.5 392.5 l 1
 398 392.5 l 1
 399 158 l 1
 249 165.5 l 1
 249 392.5 l 1
 25 392.5 l 1
EndSplineSet
EndChar

StartChar: product
Encoding: -1 8719 295
Width: 1523
VWidth: 0
Flags: HW
LayerCount: 2
Fore
SplineSet
24.5 1131 m 1
 41 1244 l 1
 1497.5 1244 l 1
 1483.5 1131 l 1
 1314.5 1078.5 l 1
 1314.5 162.5 l 1
 1496.5 114 l 1
 1482.5 0 l 1
 849.5 0 l 1
 865 106 l 1
 1030 169 l 1
 1030 1100 l 1
 493 1098 l 1
 493 162.5 l 1
 677 114 l 1
 661.5 0 l 1
 29.5 0 l 1
 41 106 l 1
 207.5 169 l 1
 207.5 1073 l 1
 24.5 1131 l 1
EndSplineSet
EndChar

StartChar: q
Encoding: -1 113 296
Width: 1007
VWidth: 0
Flags: HW
LayerCount: 2
Fore
SplineSet
27 399 m 0
 27 662.5 251 916.5 499.5 916.5 c 0
 560.5 916.5 628.5 895.5 673.5 875 c 1
 817 914 l 1
 857 910.5 l 1
 857 -194 l 1
 1016.5 -244.5 l 1
 1001.5 -364.5 l 1
 460 -364.5 l 1
 474 -245.5 l 1
 625.5 -194 l 1
 625.5 622.5 l 1
 594.5 686 524.5 742.5 454.5 742.5 c 0
 342 742.5 275.5 644.5 275.5 477 c 0
 275.5 277 356 167 457 167 c 0
 506.5 167 579.5 181.5 618.5 208.5 c 1
 615.5 81 l 1
 544 2 423 -20 351 -20 c 0
 169.5 -20 27 107 27 399 c 0
EndSplineSet
EndChar

StartChar: question
Encoding: -1 63 297
Width: 629
VWidth: 0
Flags: HW
LayerCount: 2
Fore
SplineSet
23.5 1142.5 m 0
 23.5 1210.5 72 1289 237 1289 c 0
 421 1289 624 1069.5 624 833 c 0
 624 573.5 336 624 336 473.5 c 0
 336 448.5 340 425 349 394.5 c 1
 231 370 l 1
 184 440 145.5 544.5 145.5 610 c 0
 145.5 805.5 462.5 753.5 462.5 926 c 0
 462.5 996.5 388.5 1046 331.5 1046 c 0
 253.5 1046 165.5 1015 131.5 978.5 c 1
 82.5 992.5 23.5 1067.5 23.5 1142.5 c 0
122 109.5 m 0
 122 175.5 173.5 245 288 245 c 0
 408 245 459 175.5 459 110 c 0
 459 32.5 406.5 -31 287.5 -31 c 0
 165.5 -31 122 38 122 109.5 c 0
EndSplineSet
EndChar

StartChar: quotereversed
Encoding: -1 8219 301
Width: 416
VWidth: 0
Flags: HW
LayerCount: 2
Fore
SplineSet
23.5044 1083.5 m 0
 23.5044 1246 165.505 1294.5 229.005 1294.5 c 0
 332.505 1294.5 417.505 1174.5 352.005 1044.5 c 1
 260.005 1002.5 198.505 1006 198.505 964 c 0
 198.505 917 265.005 835 384.505 823.5 c 1
 353.505 728.5 l 1
 36.5044 801.5 23.5044 991.5 23.5044 1083.5 c 0
EndSplineSet
EndChar

StartChar: quotesingle
Encoding: -1 39 303
Width: 308
VWidth: 0
Flags: HW
LayerCount: 2
Fore
SplineSet
25 1302 m 1
 272 1282 l 1
 223.5 911.5 l 1
 89.5 893 l 1
 25 1302 l 1
EndSplineSet
EndChar

StartChar: r
Encoding: -1 114 304
Width: 803
VWidth: 0
Flags: HW
LayerCount: 2
Back
SplineSet
351.497 422.358 m 1
 327.342 443.061 312.723 531.914 290.639 531.914 c 1
 271.316 531.914 322.302 555.836 301.598 531.682 c 1
 280.894 507.527 267.437 679.557 261.225 636.768 c 1
 190.225 436.069 l 1
 348.652 499.365 l 1
 543.941 459 l 1
 217.187 439.5 l 1
 212.934 435.083 l 1
 315.672 456.928 l 1
 361.672 504.928 404.172 920.828 460.396 920.828 c 1
 533.172 920.828 481.723 911.04 481.723 807.04 c 1
 490.004 648.66 l 1
 743.091 640.47 l 1
 744.014 543.48 l 1
 515.662 398.548 l 1
 528.084 477.048 l 1
 543.958 531.568 565.351 609.494 592.266 638.825 c 1
 619.182 668.155 646.786 782.815 675.082 782.815 c 1
 697.856 846.997 699.644 862.259 682.583 848.114 c 0
 673.25 833.969 659.151 810.215 638.651 772.892 c 1
 638.651 745.286 638.651 630.715 638.651 611.392 c 1
 638.651 583.786 700.151 599.215 700.151 579.892 c 1
 700.151 552.286 686.151 516.215 686.151 496.892 c 1
 686.151 469.286 383.932 444.442 351.497 422.358 c 1
EndSplineSet
Fore
SplineSet
20 1 m 1
 36 117.5 l 1
 185.5 171.5 l 1
 185.5 685.5 l 1
 34 749 l 1
 54.5 871 l 1
 380.5 904 l 1
 411 872.5 l 1
 392 687 l 1
 411 682 l 1
 463 848 557.5 918 651.5 918 c 0
 741 918 794.5 856 794.5 781.5 c 0
 794.5 706.5 756 653 703 609.5 c 1
 656 639 613 654 577 654 c 0
 502 654 446 580 423.5 482 c 1
 423.5 186 l 1
 659.5 137.5 l 1
 647.5 1 l 1
 20 1 l 1
EndSplineSet
EndChar

StartChar: radical
Encoding: -1 8730 306
Width: 935
VWidth: 0
Flags: HW
LayerCount: 2
Fore
SplineSet
-1.5 408.5 m 1
 8 517 l 1
 357 530.5 l 1
 449 157 l 1
 861 1295.5 l 1
 1019.5 1302 l 1
 504.5 -110.5 l 1
 312 -131 l 1
 138.5 369.5 l 1
 -1.5 408.5 l 1
EndSplineSet
EndChar

StartChar: registered
Encoding: -1 174 309
Width: 530
VWidth: 0
Flags: HW
LayerCount: 2
Fore
SplineSet
26.5 1068 m 0
 26.5 1212 114.5 1308 248.5 1308 c 0
 386.5 1308 477.5 1212 477.5 1070 c 0
 477.5 929 384.5 837 243.5 837 c 0
 112.5 837 26.5 930 26.5 1068 c 0
65.5 1075 m 0
 65.5 953 138.5 870 247.5 870 c 0
 361.5 870 440.5 948 440.5 1065 c 0
 440.5 1193 361.5 1275 248.5 1275 c 0
 137.5 1275 65.5 1196 65.5 1075 c 0
135.5 953 m 1
 137.5 971 l 1
 173.5 980 l 1
 173.5 1178 l 1
 137.5 1185 l 1
 138.5 1202 l 1
 171.5 1205 204.5 1209 227.5 1209 c 0
 304.5 1209 336.5 1186 336.5 1146 c 0
 336.5 1122 318.5 1096 281.5 1080 c 1
 320.5 1025 l 1
 338.5 998 355.5 983 379.5 973 c 1
 385.5 971 l 1
 381.5 953 l 1
 371.5 950 364.5 950 356.5 950 c 0
 325.5 950 299.5 973 281.5 1004 c 2
 248.5 1060 l 1
 217.5 1060 l 1
 217.5 981 l 1
 252.5 971 l 1
 250.5 953 l 1
 135.5 953 l 1
217.5 1084 m 1
 252.5 1084 l 2
 275.5 1084 286.5 1107 286.5 1137 c 0
 286.5 1168 264.5 1185 233.5 1185 c 0
 227.5 1185 217.5 1185 217.5 1185 c 1
 217.5 1084 l 1
EndSplineSet
EndChar

StartChar: ring
Encoding: -1 730 310
Width: 500
VWidth: 0
Flags: HW
LayerCount: 2
Fore
SplineSet
44.5 1526 m 0
 44.5 1619 121 1698.5 265 1698.5 c 0
 410.5 1698.5 480.5 1633.5 480.5 1535 c 0
 480.5 1446 407 1360 251.5 1360 c 0
 109 1360 44.5 1424 44.5 1526 c 0
175.5 1532 m 0
 175.5 1479.5 210 1439.5 262 1439.5 c 0
 307.5 1439.5 343.5 1469.5 343.5 1525 c 0
 343.5 1574.5 306 1617.5 254 1617.5 c 0
 207 1617.5 175.5 1577 175.5 1532 c 0
EndSplineSet
EndChar

StartChar: s
Encoding: -1 115 311
Width: 738
VWidth: 0
Flags: HW
LayerCount: 2
Fore
SplineSet
25 154 m 0
 25 236 85.5 291.5 187 299.5 c 1
 227.5 162 296.5 94 373 94 c 0
 447 94 493.5 114 493.5 175.5 c 0
 493.5 312 54 345 54 629 c 0
 54 743 148 924 401.5 924 c 0
 567 924 690.5 865 690.5 753.5 c 0
 690.5 667.5 617.5 608 525 600 c 1
 505 664.5 l 2
 474.5 781.5 408.5 807.5 354.5 807.5 c 0
 292.5 807.5 256 765 256 714 c 0
 256 560.5 713.5 531.5 713.5 246 c 0
 713.5 71.5 544 -35 344 -35 c 0
 172.5 -35 25 46.5 25 154 c 0
EndSplineSet
EndChar

StartChar: section
Encoding: -1 167 316
Width: 930
VWidth: 0
Flags: HW
LayerCount: 2
Fore
SplineSet
31.3789 -233.5 m 1
 48.3789 55.5 l 1
 192.879 31 l 1
 235.379 -164.5 l 1
 263.879 -202 347.879 -246 435.379 -246 c 0
 525.879 -246 626.379 -199.5 626.379 -76 c 0
 626.379 176 -58.621 130.5 52.3789 610 c 1
 425.379 424 l 2
 683.879 300 881.879 238 881.879 3 c 0
 881.879 -268.5 605.379 -388 397.879 -388 c 0
 253.879 -388 95.3789 -313.5 31.3789 -233.5 c 1
49.8789 912.5 m 0
 49.8789 1167.5 245.379 1267.5 478.379 1267.5 c 0
 603.879 1267.5 721.879 1234.5 791.879 1178 c 1
 791.879 1162 774.379 893 774.379 893 c 1
 639.379 910.5 l 1
 601.879 1079 l 1
 576.879 1108 509.879 1151 441.379 1151 c 0
 361.879 1151 294.379 1107.5 294.379 995 c 0
 294.379 727 1013.88 800 871.879 310 c 1
 409.379 536 l 2
 215.379 630 49.8789 715 49.8789 912.5 c 0
EndSplineSet
EndChar

StartChar: seven
Encoding: -1 55 318
Width: 868
VWidth: 0
Flags: HW
LayerCount: 2
Fore
SplineSet
2.5 745.5 m 1
 21 1183 l 1
 858 1183 l 1
 858 1093.5 l 1
 413.5 -33 l 1
 112 -2.5 l 1
 631 951.5 l 1
 191 951.5 l 1
 103 725.5 l 1
 2.5 745.5 l 1
EndSplineSet
EndChar

StartChar: seven.osf
Encoding: -1 -1 319
Width: 769
VWidth: 0
Flags: HW
LayerCount: 2
Fore
SplineSet
7.5 592 m 1
 54 969 l 1
 762.5 969 l 1
 768 833.5 l 1
 520 435.5 343 129.5 300.5 -294.5 c 1
 277.625 -298.807 248.092 -304.67 226.93 -304.67 c 0
 117.802 -304.67 47.4673 -247.508 47.4673 -157.829 c 0
 47.4673 9.5 436 527 578 748 c 1
 173.5 748 l 1
 110 573.5 l 1
 7.5 592 l 1
EndSplineSet
EndChar

StartChar: six
Encoding: -1 54 320
Width: 911
VWidth: 0
Flags: HW
LayerCount: 2
Fore
SplineSet
29.5 420.5 m 0
 29.5 816.5 407.5 1128 707.5 1214.5 c 1
 759.5 1140 l 1
 539.5 1032.5 368.5 832.5 328.5 636.5 c 1
 343.5 636.5 l 1
 394 692.5 474.5 732.5 568 732.5 c 0
 755.5 732.5 896 600 896 386.5 c 0
 896 118 671.5 -20 455 -20 c 0
 167.5 -20 29.5 186 29.5 420.5 c 0
317 386 m 0
 317 245.5 358 91.5 461 91.5 c 0
 565.5 91.5 609.5 181 609.5 329 c 0
 609.5 425 590.5 580 466.5 580 c 0
 402.5 580 347.5 545 323.5 513.5 c 1
 321 484 317 425 317 386 c 0
EndSplineSet
EndChar

StartChar: six.osf
Encoding: -1 -1 321
Width: 869
VWidth: 0
Flags: HW
LayerCount: 2
Fore
SplineSet
18.5 420.5 m 0
 18.5 816.5 358.5 1165.5 658.5 1252 c 1
 709.5 1178 l 1
 489.5 1070.5 353.5 837 313.5 641 c 1
 328 641 l 1
 385.5 706 466 739 546.5 739 c 0
 726 739 851 594 851 396.5 c 0
 851 136.5 635 -20 426.5 -20 c 0
 146.5 -20 18.5 186 18.5 420.5 c 0
302 386 m 0
 302 245.5 337 91.5 437.5 91.5 c 0
 513.5 91.5 573.5 181 573.5 329 c 0
 573.5 425 566 584.5 442 584.5 c 0
 378 584.5 332.5 548.5 308.5 517 c 1
 306 487.5 302 425 302 386 c 0
EndSplineSet
EndChar

StartChar: slash
Encoding: -1 47 322
Width: 684
VWidth: 0
Flags: HW
LayerCount: 2
Fore
SplineSet
22 -367.5 m 1
 484 1229.5 l 1
 665 1244 l 1
 199 -356.5 l 1
 22 -367.5 l 1
EndSplineSet
EndChar

StartChar: softhyphen
Encoding: -1 173 323
Width: 546
VWidth: 0
Flags: HW
LayerCount: 2
Fore
SplineSet
42.5 377 m 1
 48.5 546.5 l 1
 506 604.5 l 1
 499 435 l 1
 42.5 377 l 1
EndSplineSet
EndChar

StartChar: sterling
Encoding: -1 163 325
Width: 1160
VWidth: 0
Flags: HW
LayerCount: 2
Fore
SplineSet
21.5 0 m 1
 30.5 106 l 1
 196.5 169 l 1
 230.5 265 236.5 312.5 239.5 460.5 c 2
 241.5 525 l 1
 58.5 512.5 l 1
 72.5 655 l 1
 244.5 664 l 1
 247 766 l 1
 257 1099 502 1252.5 770.5 1252.5 c 0
 860 1252.5 946 1241 1029 1208 c 1
 993 837 l 1
 870 854 l 1
 809.5 1067.5 l 1
 775.5 1083 730.5 1092.5 692.5 1092.5 c 0
 561 1092.5 523 1004 520 704.5 c 1
 520 670.5 l 1
 770.5 685 l 1
 760 544 l 1
 516.5 531 l 1
 514.5 499 l 1
 508.5 382 509 252 454 165 c 1
 843 138.5 l 1
 1008 395 l 1
 1139 369 l 1
 1093 0 l 1
 21.5 0 l 1
EndSplineSet
EndChar

StartChar: sterling.osf
Encoding: -1 -1 326
Width: 1201
VWidth: 0
Flags: HW
LayerCount: 2
Fore
SplineSet
45 0 m 1
 51 106 l 1
 219 153 l 1
 249 217 253.876 279.51 258 371.5 c 2
 258.5 413.5 l 1
 81.5 404 l 1
 93 527.5 l 1
 263 537.5 l 1
 265 637.5 l 2
 271.5 905.5 482.5 1032.5 709 1032.5 c 0
 924 1032.5 1032.99 936.988 1032.99 849.78 c 0
 1032.99 749.952 926 686.5 823 686 c 1
 817.5 822 759.528 921 678.778 920.6 c 0
 542.5 920 521.5 836.5 521.5 601.5 c 2
 521.5 549 l 1
 778 559.5 l 1
 768 436.5 l 1
 519 423 l 1
 519 404 l 2
 519 281.5 500.5 200 455.5 143 c 1
 819 128 l 1
 942.5 369 l 1
 1065 338.5 l 1
 1044.5 0 l 1
 45 0 l 1
EndSplineSet
EndChar

StartChar: summation
Encoding: -1 8721 327
Width: 1120
VWidth: 0
Flags: HW
LayerCount: 2
Fore
SplineSet
22 1168 m 1
 35.5 1244 l 1
 1074 1244 l 1
 1043 893.5 l 1
 915 913 l 1
 854 1112 l 1
 372.5 1112 l 1
 749.5 702 l 1
 750 641.5 l 1
 356 239 l 1
 837.5 219 l 1
 963 464 l 1
 1087 451.5 l 1
 1057 0 l 1
 38.5 0 l 1
 38.5 106 l 1
 501 606 l 1
 501 621 l 1
 22 1168 l 1
EndSplineSet
EndChar

StartChar: t
Encoding: -1 116 328
Width: 705
VWidth: 0
Flags: W
HStem: -23 197.5<304 571.943> 720.5 142<392 660>
VStem: 139 247.5<207.899 720.5>
LayerCount: 2
Fore
SplineSet
29 723 m 1
 29 824.5 l 1
 123 888.5 213.5 982 284 1082 c 1
 392 1082 l 1
 392 862.5 l 1
 670.5 862.5 l 1
 660 720.5 l 1
 389 720.5 l 1
 386.5 336.5 l 2
 386 220 427 174.5 535 174.5 c 0
 600.5 174.5 663 217 663 217 c 1
 688.5 123.5 l 1
 635 47.5 532.5 -23 391 -23 c 0
 217 -23 137 48.5 139 277.5 c 2
 142.5 723 l 1
 29 723 l 1
EndSplineSet
EndChar

StartChar: thorn
Encoding: -1 254 333
Width: 1019
VWidth: 0
Flags: HW
LayerCount: 2
Fore
SplineSet
-7.5 -368 m 1
 5 -249.5 l 1
 159 -196.5 l 1
 158.5 1044.5 l 1
 -4.5 1122 l 1
 14.5 1242 l 1
 355.5 1266 l 1
 397.5 1227 l 1
 397.5 882.5 l 1
 383 760 l 1
 396 757 l 1
 449.5 825 538.5 918 670.5 918 c 0
 841 918 992.5 779 992.5 479.5 c 0
 992.5 165.5 791 -16 536.5 -16 c 0
 504.5 -16 441 -15 408 -0.5 c 1
 406.5 164 l 1
 617.116 93.3768 736.5 197.949 736.5 398.5 c 0
 736.5 590 685.5 705 575.5 705 c 0
 511.5 705 450.5 672 396 627.5 c 1
 396 -197.5 l 1
 596 -247.5 l 1
 579 -368 l 1
 -7.5 -368 l 1
EndSplineSet
EndChar

StartChar: three
Encoding: -1 51 334
Width: 941
VWidth: 0
Flags: HW
LayerCount: 2
Fore
SplineSet
26.5 41.5 m 1
 89.5 414 l 1
 222 397.5 l 1
 242.5 149.5 l 1
 264.568 125.808 310.872 104.378 357.198 104.378 c 0
 480.671 104.378 572.5 175.439 572.5 307 c 0
 572.5 439.5 459.5 551.5 253 537 c 1
 228 634 l 1
 384 670 540 756.5 540 897.5 c 0
 540 1012.73 461.671 1090.84 351.745 1090.84 c 0
 317.307 1090.84 282.987 1078.71 258 1061 c 1
 206 770.5 l 1
 80.5 781.5 l 1
 39 1104 l 1
 87 1154 277.5 1218.5 424.5 1218.5 c 0
 660.5 1218.5 845 1147 845 962.5 c 0
 845 800.5 648 703 527.5 661 c 1
 527.5 646 l 1
 741 638.5 886 538.5 888.5 370.5 c 0
 891.5 153 645 -24.5 314.5 -24.5 c 0
 193 -24.5 83 9.5 26.5 41.5 c 1
EndSplineSet
EndChar

StartChar: three.osf
Encoding: -1 -1 335
Width: 776
VWidth: 0
Flags: HW
LayerCount: 2
Fore
SplineSet
-22 -125.655 m 0
 -22 -63.7138 22.5303 23 129.031 43 c 1
 147.031 -33.5 212.392 -182.039 311.138 -182.633 c 0
 448.985 -183.117 492.343 -85.432 492.343 30.8188 c 0
 492.343 154.115 394.531 293.5 209.531 285.5 c 1
 191.531 371.5 l 1
 356.943 418.761 464.999 526.017 464.999 661.947 c 0
 464.999 741.5 422.4 811.604 339.599 811.604 c 0
 247.032 811.604 184.031 748 144.531 656.5 c 1
 44.0303 692.5 l 1
 94.0305 847 275.719 986.938 445.982 986.938 c 0
 602.36 986.938 723.781 894.049 724.031 737 c 0
 724.255 582.5 532.531 456 468.03 426 c 1
 468.03 408.5 l 1
 664.531 392 757.716 246.989 757.716 104.16 c 0
 757.716 -100.019 533.531 -302.5 266.031 -302.5 c 0
 79.256 -302.5 -22 -214.5 -22 -125.655 c 0
EndSplineSet
EndChar

StartChar: threequarters
Encoding: -1 190 336
Width: 909
VWidth: 0
Flags: HW
LayerCount: 2
Fore
SplineSet
27 542 m 0
 27 560.5 43 581 76 584 c 1
 77.5 565.5 113 522.5 150 522.5 c 0
 231 522.5 247 574 247 617 c 0
 247 663 197 720.5 123.5 720.5 c 2
 119 720.5 l 1
 112.5 746.5 l 1
 127.5 749 227 789 227 862 c 0
 227 894.5 210 930 158 930 c 0
 115 930 93 906.5 79 869.5 c 1
 48.5 880.5 l 1
 55.5 923.5 113 981.5 183 981.5 c 0
 244 981.5 300.5 941 300.5 883 c 0
 300.5 819 256 779 206.5 761 c 1
 206.5 758.5 l 1
 276.5 748 316 692.5 316 640.5 c 0
 316 554 236.5 488 131.5 488 c 0
 61 488 27 515 27 542 c 0
90.5 -30.5 m 1
 780 960.5 l 1
 859.5 967.5 l 1
 174 -20 l 1
 90.5 -30.5 l 1
510 172 m 1
 756.5 476.5 l 1
 782.5 470.5 l 1
 781 423 780 346.5 780 273.5 c 2
 780 190 l 1
 882 190 l 1
 875.5 141.5 l 1
 780 141.5 l 1
 780 6 l 1
 714 -2.5 l 1
 714 144 l 1
 518 144 l 1
 510 172 l 1
576.5 190 m 1
 713 190 l 1
 713 362.5 l 1
 576.5 190 l 1
EndSplineSet
EndChar

StartChar: threesuperior
Encoding: -1 179 337
Width: 250
VWidth: 0
Flags: HW
LayerCount: 2
Fore
SplineSet
29.5 994.5 m 0
 29.5 1017.5 57.5 1028 68.5 1027.5 c 1
 71 996.5 77.5 967.5 114.5 967.5 c 0
 151.5 967.5 170 999 170 1031.5 c 0
 170 1064 140.5 1103.5 103.5 1103.5 c 0
 93 1103.5 79.5 1103 68.5 1103 c 1
 69 1110 61.5 1119.5 61.5 1130 c 2
 66.5 1131.5 108.5 1137 108.5 1172 c 1
 114 1187 148 1207 134 1242.5 c 0
 125 1256 105.5 1258 92 1233 c 1
 69.5 1233.5 53 1227 53 1212.5 c 1
 39.5 1234.5 64 1255.5 80.5 1264.5 c 0
 102.5 1287.5 152 1284 168.5 1266 c 0
 188.5 1246 193.5 1210.5 177 1182.5 c 1
 177 1162.5 164 1139.5 147.5 1130.5 c 1
 171 1124 185 1104 185 1085.5 c 1
 209 1054 203 1006.5 172.5 988 c 0
 136 964 181 937.5 120 937.5 c 0
 47 937.5 29.5 971.5 29.5 994.5 c 0
EndSplineSet
EndChar

StartChar: tilde
Encoding: -1 732 338
Width: 646
VWidth: 0
Flags: HW
LayerCount: 2
Fore
SplineSet
47.1719 1353 m 1
 39.6719 1412.5 87.1719 1573 226.672 1547 c 2
 453.172 1508 l 2
 488.672 1501.5 516.172 1554.5 516.172 1554.5 c 1
 598.172 1548 l 1
 597.672 1465.5 531.672 1335.5 402.172 1361 c 2
 185.172 1401.5 l 2
 143.672 1410 125.672 1345.5 125.672 1345.5 c 1
 47.1719 1353 l 1
EndSplineSet
EndChar

StartChar: trademark
Encoding: -1 8482 339
Width: 832
VWidth: 0
Flags: HW
LayerCount: 2
Fore
SplineSet
23.5 1318 m 1
 318.5 1318 l 1
 308.5 1225 l 1
 278 1228 l 1
 268.5 1289 l 1
 200 1289 l 1
 200 1023.5 l 1
 250 1016.5 l 1
 246 991.5 l 1
 90.5 991.5 l 1
 89.5 1014 l 1
 136 1026.5 l 1
 136 1289 l 1
 69.5 1289 l 1
 57 1225 l 1
 26.5 1228 l 1
 23.5 1318 l 1
331.5 991.5 m 1
 333.5 1014 l 1
 379.5 1026.5 l 1
 397.5 1282 l 1
 349.5 1291.5 l 1
 352.5 1318 l 1
 474.5 1318 l 1
 497 1266 l 1
 567 1070.5 l 1
 646 1273.5 l 1
 665 1318 l 1
 787.5 1318 l 1
 784 1291.5 l 1
 738 1282 l 1
 754 1023.5 l 1
 803 1016.5 l 1
 801.5 991.5 l 1
 646 991.5 l 1
 647.5 1014 l 1
 691.5 1026.5 l 1
 677.5 1255 l 1
 578 1002.5 l 1
 526 997 l 1
 434.5 1245 l 1
 420.5 1023.5 l 1
 467.5 1016.5 l 1
 465.5 991.5 l 1
 331.5 991.5 l 1
EndSplineSet
EndChar

StartChar: two
Encoding: -1 50 340
Width: 934
VWidth: 0
Flags: HW
LayerCount: 2
Back
SplineSet
783.847 0 m 1
 86.6885 0 l 1
 81.2134 93.076 l 1
 296.565 280.141 l 2
 354.054 329.417 354.054 329.417 390.555 363.179 c 0
 414.888 385.688 443.023 414.28 474.962 448.956 c 0
 506.9 483.631 531.994 515.265 550.244 543.857 c 0
 568.494 572.448 584.311 604.843 597.695 641.038 c 0
 611.079 677.235 617.77 713.28 617.77 749.171 c 0
 617.77 903.08 555.415 979.73 430.705 979.127 c 0
 330.937 979.127 250.635 901.867 189.802 747.346 c 1
 114.976 774.723 l 1
 124.101 813.656 139.766 852.437 161.971 891.067 c 0
 184.176 929.698 210.943 964.829 242.271 996.464 c 0
 273.602 1028.1 310.557 1053.8 353.142 1073.57 c 0
 395.725 1093.34 439.831 1103.23 485.456 1103.23 c 0
 583.398 1103.23 657.616 1076.16 708.109 1022.01 c 0
 758.601 967.871 783.847 890.307 783.847 789.322 c 0
 783.847 757.688 779.285 726.054 770.16 694.421 c 0
 761.034 662.787 749.78 633.587 736.396 606.82 c 0
 723.013 580.053 705.371 552.07 683.471 522.869 c 0
 661.57 493.669 640.583 468.271 620.507 446.674 c 0
 600.432 425.078 576.099 400.896 547.506 374.13 c 0
 518.915 347.362 494.733 325.766 474.962 309.341 c 0
 445.305 284.703 445.305 284.703 401.505 248.203 c 0
 357.704 211.702 357.704 211.702 337.63 194.365 c 2
 254.591 122.277 l 1
 684.383 122.277 l 1
 771.984 284.703 l 1
 834.948 275.578 l 1
 783.847 0 l 1
EndSplineSet
Fore
SplineSet
26.5 157.5 m 1
 253 335 l 2
 387.5 442 544 601.5 544 778 c 0
 544 942.877 495.442 1049.27 373.426 1049.27 c 0
 322.603 1049.27 278.028 1021.24 256.5 986 c 1
 203.5 666.5 l 1
 86 685 l 1
 47 1013 l 1
 132.5 1127 341 1210.5 504 1210.5 c 0
 750 1210.5 871 1063 871 877.5 c 0
 871 582 576.5 368.5 396 248 c 2
 323.5 200 l 1
 689 200 l 1
 797 409.5 l 1
 912.5 396.5 l 1
 863 0 l 1
 32.5 0 l 1
 26.5 157.5 l 1
EndSplineSet
EndChar

StartChar: two.osf
Encoding: -1 -1 341
Width: 825
VWidth: 0
Flags: HW
LayerCount: 2
Fore
SplineSet
20 136 m 1
 274.5 321 l 1
 427.461 433.698 472.766 555.03 472.766 649.432 c 0
 472.766 766.444 411.3 838 317 838 c 0
 235.5 838 159 754 131.5 653.5 c 1
 38 692.5 l 1
 54 805 192.5 1012 441.5 1014 c 0
 657 1015.5 744 851 744 715 c 0
 744 544.5 586 379.5 408 257.5 c 1
 286.5 178 l 1
 612.5 178 l 1
 709 338 l 1
 812 327 l 1
 757.5 0 l 1
 33 0 l 1
 20 136 l 1
EndSplineSet
EndChar

StartChar: twosuperior
Encoding: -1 178 342
Width: 245
VWidth: 0
Flags: HW
LayerCount: 2
Fore
SplineSet
30.5 1025.5 m 1
 74 1083 l 1
 86 1094.5 134.5 1151.5 134.5 1166.5 c 1
 146 1194.5 148 1224 133 1239.5 c 0
 119 1256 112 1246.5 96.5 1231.5 c 1
 68 1233 58.5 1217 58.5 1213.5 c 1
 43 1232 66 1254 84.5 1265.5 c 0
 106 1281 152 1284.5 170.5 1261.5 c 0
 192 1233.5 193 1204 163.5 1154.5 c 1
 163.5 1127.5 130.5 1094.5 102 1069 c 1
 147 1052.5 l 1
 212 1031.5 l 1
 118.5 1010.5 l 1
 30.5 1025.5 l 1
EndSplineSet
EndChar

StartChar: u
Encoding: -1 117 343
Width: 1072
VWidth: 0
Flags: W
HStem: -27 232<302 546.547> 883 20G<55.5465 370.539 678.515 886.721>
VStem: 141 249<238.103 670.5> 663.5 241<234.702 663>
LayerCount: 2
Fore
SplineSet
9.5 750.5 m 1
 33.5 881.5 l 1
 349.5 903 l 1
 390 864.5 l 1
 390 393 l 1
 390 253.5 432.5 205 508.5 205 c 0
 576.5 205 621.5 228.5 663.5 268.5 c 1
 663.5 663 l 1
 519.5 722 l 1
 541.5 872.5 l 1
 867.5 907 l 1
 904.5 868.5 l 1
 904.5 294 l 2
 904.5 192.5 940 170.5 1027.5 145.5 c 2
 1064.5 136 l 1
 1047.5 9.5 l 1
 979 -15.5 918.5 -29 849 -29 c 0
 744.5 -29 677 23 677 118.5 c 2
 677 129.5 l 1
 664 132.5 l 1
 599 28 494.5 -27 386.5 -27 c 0
 217.5 -27 141 55.5 141 267 c 2
 141 670.5 l 1
 9.5 750.5 l 1
EndSplineSet
EndChar

StartChar: underscore
Encoding: -1 95 355
Width: 840
VWidth: 0
Flags: HW
LayerCount: 2
Fore
SplineSet
-0.5 -131 m 1
 13.5 12.5 l 1
 841 12.5 l 1
 827.5 -131 l 1
 -0.5 -131 l 1
EndSplineSet
EndChar

StartChar: uni1E9E
Encoding: -1 7838 356
Width: 1439
VWidth: 0
Flags: HW
LayerCount: 2
Fore
SplineSet
13 0 m 1
 23.5 104.5 l 1
 182.5 165.5 l 1
 182.5 739.5 l 2
 182.5 1103.5 483.5 1259 811.5 1259 c 0
 1049 1259 1357 1198 1357 1015 c 0
 1357 921.5 1312.5 862 1214 828.5 c 1
 1136 973.5 1052 1071 955.5 1071 c 0
 890.5 1071 833 1010 833 934 c 0
 833 704 1412 727 1412 333.5 c 0
 1412 64 1141 -23.5 935.5 -23.5 c 0
 749.5 -23.5 598 36 543.5 123.5 c 1
 567 432 l 1
 703 410 l 1
 741.5 228 l 1
 780.5 169.5 872 128.5 960.5 128.5 c 0
 1052 128.5 1124 154 1124 250.5 c 0
 1124 475 561 438 561 813 c 0
 561 969 667 1079 777.5 1102.5 c 1
 773.5 1109 l 1
 756 1111 724.5 1112 708 1112 c 0
 528.5 1112 457 977 457 762.5 c 2
 458 0 l 1
 13 0 l 1
EndSplineSet
EndChar

StartChar: uni1E9E.alt
Encoding: -1 -1 357
Width: 1430
VWidth: 0
Flags: HW
LayerCount: 2
Fore
SplineSet
60.5 0.5 m 1
 71 105.5 l 1
 231.5 167 l 1
 231.5 710 l 2
 231.5 1083 502.5 1272 865 1272 c 0
 1095 1272 1288 1243.5 1381.5 1212 c 1
 1372 1102 l 1
 1045.5 781.529 l 1
 1222.46 694.164 1463.5 632.202 1463.5 359.5 c 0
 1463.5 86.5 1193.5 -24 983 -24 c 0
 795.5 -24 642.5 41.5 588 128.5 c 1
 611.5 444 l 1
 751.5 422 l 1
 792 234 l 1
 831 174 918 129 1007.5 129 c 0
 1109 129 1173.5 186 1173.5 276.5 c 0
 1173.5 462.435 852.5 587 670.5 646.202 c 1
 646 704.202 l 1
 1026.5 1082 l 1
 1026.5 1088 l 1
 969.538 1109.52 839.302 1130.05 786.906 1130.05 c 0
 579.013 1130.05 507.5 982.295 507.5 733 c 2
 507.5 0.5 l 1
 60.5 0.5 l 1
EndSplineSet
EndChar

StartChar: uni1E9E.alt2
Encoding: -1 -1 358
Width: 1317
VWidth: 829
Flags: HW
LayerCount: 2
Back
SplineSet
724.76 498.5 m 1
 612.26 577.5 491.322 534.443 587.322 461.287 c 1
 657.281 407.975 981.638 399.003 981.638 220.773 c 1
 981.638 64.2735 801.638 467.18 708.138 467.18 c 1
 593.138 690.495 614.947 818.125 775.655 860.125 c 1
 894.69 860.125 1014.96 1023.32 1048.53 971.94 c 1
 1116.68 763.12 l 1
 1108.69 673.69 l 1
 1129.69 643.69 1162.4 781.305 1204.9 781.305 c 1
 1215.4 817.93 1211.43 853.395 1152.43 879.895 c 0
 1099.01 977.895 723.698 905.49 723.698 1002.83 c 0
 723.698 1020.86 811.237 1024.16 893.959 996.051 c 1
 1001.29 907.029 1182.47 861.159 1182.47 723.303 c 1
 1174.47 606.286 1070.31 515.73 907.655 515.73 c 0
 735.107 515.73 635.32 486.392 595.134 447.734 c 1
 613.955 251.294 l 1
 380.469 246.717 l 1
 403.754 177.369 l 1
 431.733 122.938 583.511 129.4 654.22 129.4 c 1
 732.05 129.4 805.3 435.217 805.3 528.308 c 1
 805.3 840.421 835.335 972.281 909.02 1060.79 c 0
 1006.71 1100.47 1093.66 1105.27 1131.16 1133.84 c 1
 1131.16 1194.07 1160.39 1117.15 1249.42 1138.01 c 1
 1163.42 1155.55 l 1
 1150.71 1157.07 724.76 498.5 724.76 498.5 c 1
EndSplineSet
Fore
SplineSet
15 0 m 1
 25.5 105 l 1
 186.5 166.5 l 1
 186.5 747 l 2
 186.5 1102.5 475 1271.5 820 1271.5 c 0
 1051 1271.5 1242.5 1219.5 1334.5 1150.5 c 1
 1334.5 1138.5 1310.5 827.5 1310.5 827.5 c 1
 1174 848 l 1
 1141.5 1045.5 l 1
 1083.54 1087.4 1042.4 1101.09 983.335 1101.09 c 0
 874.255 1101.09 806.211 1000.26 842.711 914.845 c 0
 907.711 699 1426 722.116 1426 336.5 c 0
 1426 63 1155.5 -24 945 -24 c 0
 756.5 -24 604 37 550 125 c 1
 573.5 440 l 1
 713.5 418 l 1
 754 230 l 1
 793.5 171 882 129 970.5 129 c 0
 1078.5 129 1136.5 167.5 1136.5 253 c 0
 1136.5 494 567.5 447 567.5 829.5 c 0
 567.5 988 676.5 1090.5 786.5 1114 c 1
 782.5 1120.5 l 1
 761.5 1122.5 740 1123.5 716.5 1123.5 c 0
 536 1123.5 462.5 989.5 462.5 770 c 2
 462.5 0 l 1
 15 0 l 1
EndSplineSet
EndChar

StartChar: uniF001
Encoding: -1 61441 359
Width: 1203
VWidth: 0
Flags: HW
LayerCount: 2
Fore
SplineSet
17.5 0 m 1
 29.5 115.5 l 1
 183 173 l 1
 183 742 l 1
 33.5 742 l 1
 44.5 853 l 1
 182.5 876 l 1
 207 1149 423.5 1295 618.5 1295 c 0
 724.5 1295 893.5 1281 893.5 1169 c 0
 893.5 1099.5 813.5 1038 755.5 1028 c 1
 711.5 1106.5 623 1166 560.5 1166 c 0
 494 1166 416.5 1130.5 415.5 968 c 2
 414.5 869.5 l 1
 618.5 869.5 l 1
 605.5 742 l 1
 414.5 742 l 1
 414.5 180.5 l 1
 537 127.5 l 1
 533.5 0 l 1
 17.5 0 l 1
634 0 m 1
 644 127.5 l 1
 796.5 173 l 1
 796.5 675 l 1
 635 743 l 1
 648.5 864 l 1
 997 906.5 l 1
 1037.5 866 l 1
 1037.5 173 l 1
 1198.5 127 l 1
 1187 0 l 1
 634 0 l 1
793.5 1173 m 0
 793.5 1216.76 833.448 1250.28 887.59 1250.28 c 0
 944.638 1250.28 985.284 1215.34 985.284 1171.86 c 0
 985.284 1126.74 946 1088.6 887.287 1088.6 c 0
 827.819 1088.6 793.5 1127.74 793.5 1173 c 0
EndSplineSet
EndChar

StartChar: uniF002
Encoding: -1 61442 360
Width: 1184
VWidth: 0
Flags: HW
LayerCount: 2
Fore
SplineSet
614.5 0 m 1
 628 127.5 l 1
 780 173 l 1
 780 1071.5 l 1
 701.5 1158.5 l 1
 707.5 1248.5 l 1
 980 1267.5 l 1
 1021 1227 l 1
 1021 173 l 1
 1178.5 127 l 1
 1166.5 0 l 1
 614.5 0 l 1
17.5 0 m 1
 29.5 115.5 l 1
 183 173 l 1
 183 742 l 1
 33.5 742 l 1
 44.5 853 l 1
 182.5 876 l 1
 192 1142 382.5 1294 553 1294 c 0
 650 1294 787 1281 787 1175.5 c 0
 787 1110.5 721 1084.5 664.5 1073 c 1
 633.5 1109 556 1159.5 499.5 1159.5 c 0
 439 1159.5 411 1086.5 413 951.5 c 2
 414.5 869.5 l 1
 669.5 869.5 l 1
 656.5 742 l 1
 414.5 742 l 1
 414.5 180.5 l 1
 537 127.5 l 1
 533.5 0 l 1
 17.5 0 l 1
EndSplineSet
EndChar

StartChar: v
Encoding: -1 118 363
Width: 968
VWidth: 0
Flags: HW
LayerCount: 2
Fore
SplineSet
-3 782 m 1
 13 897.5 l 1
 512 897.5 l 1
 498 782.5 l 1
 379 733.5 l 1
 530 263 l 1
 692 731 l 1
 569.5 782 l 1
 590.5 897.5 l 1
 973 897.5 l 1
 954.5 782.5 l 1
 857.5 733.5 l 1
 591 -8 l 1
 388 -30 l 1
 114 731 l 1
 -3 782 l 1
EndSplineSet
EndChar

StartChar: w
Encoding: -1 119 364
Width: 1272
VWidth: 0
Flags: HW
LayerCount: 2
Fore
SplineSet
-1 782.5 m 1
 15.5 900 l 1
 465.5 900 l 1
 450.5 784.5 l 1
 345 726.5 l 1
 433.5 350.5 l 1
 450.5 348.5 l 1
 565.5 835.5 l 1
 750.5 854.5 l 1
 876.5 342.5 l 1
 893.5 355 l 1
 973.5 724.5 l 1
 868.5 782.5 l 1
 884 900 l 1
 1275.5 900 l 1
 1257.5 784.5 l 1
 1150.5 726.5 l 1
 955.5 -10.5 l 1
 771 -33.5 l 1
 632.5 500 l 1
 506.5 -10.5 l 1
 323 -33.5 l 1
 113.5 724.5 l 1
 -1 782.5 l 1
EndSplineSet
EndChar

StartChar: x
Encoding: -1 120 369
Width: 974
VWidth: 0
Flags: HW
LayerCount: 2
Fore
SplineSet
10.5 0 m 1
 22 115 l 1
 144 161.5 l 1
 354.5 441 l 1
 123.5 747.5 l 1
 23.5 788 l 1
 44 906.5 l 1
 407.5 906.5 l 1
 440.628 811.5 l 1
 394.156 775.5 l 1
 523.5 592 l 1
 644 753 l 1
 544.5 803 l 1
 565.5 906.5 l 1
 958.5 906.5 l 1
 940.5 791 l 1
 825.5 749.5 l 1
 615 485.5 l 1
 848.5 168.5 l 1
 963 126.5 l 1
 947 0 l 1
 569 0 l 1
 533.769 96.5 l 1
 588.032 131 l 1
 448.5 331.5 l 1
 329.5 156.5 l 1
 451 104 l 1
 433.5 0 l 1
 10.5 0 l 1
EndSplineSet
EndChar

StartChar: y
Encoding: -1 121 370
Width: 1025
VWidth: 0
Flags: HW
LayerCount: 2
Fore
SplineSet
4 -240 m 0
 4 -187.5 13.5 -137.5 74 -81 c 1
 126 -126.5 195 -150 262.5 -150 c 0
 316.5 -150 376.5 -135 417.5 -45 c 2
 434.5 -9 l 1
 135.5 731 l 1
 10.5 779.5 l 1
 27.5 897.5 l 1
 515 897.5 l 1
 500 782.5 l 1
 391.5 735 l 1
 565 271.5 l 1
 750 728.5 l 1
 626.5 782 l 1
 647 897.5 l 1
 1028.5 897.5 l 1
 1016.5 782.5 l 1
 917 731 l 1
 589.5 -34 l 2
 479.141 -291.508 379 -381 196 -381 c 0
 95 -381 4 -315 4 -240 c 0
EndSplineSet
EndChar

StartChar: yen
Encoding: -1 165 374
Width: 1111
VWidth: 0
Flags: HW
LayerCount: 2
Fore
SplineSet
21 1128.5 m 1
 43.5 1244.5 l 1
 544.5 1244.5 l 1
 525 1128.5 l 1
 426.5 1079 l 1
 607.5 661 l 1
 800 1078 l 1
 670.5 1128.5 l 1
 687.5 1244.5 l 1
 1090 1244.5 l 1
 1074 1128.5 l 1
 955 1080 l 1
 720 604 l 1
 970.5 604 l 1
 960.5 485 l 1
 682.5 485 l 1
 682.5 388 l 1
 966 388 l 1
 954 273.5 l 1
 682.5 273.5 l 1
 682.5 158 l 1
 828 109.5 l 1
 817.5 0 l 1
 277.5 0 l 1
 291.5 101 l 1
 415.5 165.5 l 1
 415.5 273.5 l 1
 137.5 273.5 l 1
 150.5 388 l 1
 415.5 388 l 1
 415.5 485 l 1
 141 485 l 1
 155.5 604 l 1
 384 604 l 1
 152 1076.5 l 1
 21 1128.5 l 1
EndSplineSet
EndChar

StartChar: z
Encoding: -1 122 376
Width: 817
VWidth: 0
Flags: HW
LayerCount: 2
Fore
SplineSet
34.5 133.5 m 1
 475 763.5 l 1
 233 763.5 l 1
 154 584.5 l 1
 35 605.5 l 1
 51.5 897.5 l 1
 774 897.5 l 1
 771 781 l 1
 309 140 l 1
 580.5 140 l 1
 689 320.5 l 1
 793.5 298.5 l 1
 753 0 l 1
 40.5 0 l 1
 34.5 133.5 l 1
EndSplineSet
EndChar

StartChar: zero
Encoding: -1 48 380
Width: 957
VWidth: 0
Flags: HW
LayerCount: 2
Fore
SplineSet
33.5 584.5 m 0
 33.5 1039.5 270 1205 490.5 1205 c 0
 730.5 1205 923 1044 923 584.5 c 0
 923 118 684.5 -27 478.5 -27 c 0
 255.5 -27 33.5 93.5 33.5 584.5 c 0
337.5 587 m 0
 337.5 253 365 105.5 486 105.5 c 0
 588 105.5 619 255.5 619 589.5 c 0
 619 928 588.5 1062 474.5 1062 c 0
 368.5 1062 337.5 926.5 337.5 587 c 0
EndSplineSet
EndChar

StartChar: zero.osf
Encoding: -1 -1 381
Width: 880
VWidth: 0
Flags: HW
LayerCount: 2
Fore
SplineSet
49.5 495 m 0
 49.5 784.5 246.5 1005 446.5 1004 c 0
 681.072 1002.5 831 804.5 831 511 c 0
 831 147.5 621 -21.5 440.5 -21.5 c 0
 263 -21.5 49.5 111.5 49.5 495 c 0
318 518 m 0
 318 159.5 367.5 112 441 112 c 0
 512.5 112 567 158 567 505 c 0
 567 841 510 887 443.5 887 c 0
 372 887 318 845.5 318 518 c 0
EndSplineSet
EndChar

StartChar: yen.osf
Encoding: -1 -1 382
Width: 1156
VWidth: 0
Flags: HW
LayerCount: 2
Back
SplineSet
111.549 1213.69 m 1
 123.59 1906.79 l 1
 773.188 1924.18 l 1
 771.104 1892.68 l 1
 882.714 1832.48 l 1
 1296.59 849.917 l 1
 1554.89 1765.06 l 1
 1265.9 1283.8 l 1
 1407.1 1354.33 l 1
 2129.41 1321.97 l 1
 1924.83 1213.69 l 1
 111.549 1213.69 l 1
EndSplineSet
Fore
SplineSet
73.5 943.5 m 1
 93.5 1061.5 l 1
 617.5 1061.5 l 1
 598.5 943.5 l 1
 479.5 896 l 1
 644 492.5 l 1
 829.5 893 l 1
 671.5 943.5 l 1
 688.5 1062.5 l 1
 1118.5 1062.5 l 1
 1103 943.5 l 1
 984 896.5 l 1
 741 430.5 l 1
 1036.5 430.5 l 1
 1026 312.5 l 1
 726 312.5 l 1
 726 158 l 1
 871.5 109.5 l 1
 861 0 l 1
 321 0 l 1
 335 101 l 1
 469 165.5 l 1
 469 312.5 l 1
 147 312.5 l 1
 162 430.5 l 1
 434.5 430.5 l 1
 204.5 893 l 1
 73.5 943.5 l 1
147 534 m 1
 162 653.5 l 1
 482.5 653.5 l 9
 540.5 534 l 17
 147 534 l 1
712 534 m 9
 772 653.5 l 17
 1036.5 653.5 l 1
 1026 534 l 1
 712 534 l 9
EndSplineSet
EndChar
